<svg width="258" height="224" viewBox="0 0 258 224" version="1.1" xmlns="http://www.w3.org/2000/svg" xmlns:xlink="http://www.w3.org/1999/xlink" xmlns:figma="http://www.figma.com/figma/ns">
<title>Coming soon</title>
<desc>Created using Figma</desc>
<g id="Canvas" transform="matrix(2 0 0 2 -2122 710)" figma:type="canvas">
<g id="Coming Soon" style="mix-blend-mode:normal;" figma:type="text">
<use xlink:href="#path0_fill" transform="matrix(0.777146 -0.62932 0.62932 0.777146 1053.94 -275.433)" style="mix-blend-mode:normal;"/>
<mask id="mask0_outline_out">
<rect id="mask0_outline_inv" fill="white" x="-1" y="12" width="142" height="29" transform="matrix(0.777146 -0.62932 0.62932 0.777146 1053.94 -275.433)"/>
<use xlink:href="#path0_fill" fill="black" transform="matrix(0.777146 -0.62932 0.62932 0.777146 1053.94 -275.433)"/>
</mask>
<g mask="url(#mask0_outline_out)">
<use xlink:href="#path1_stroke_2x" transform="matrix(0.777146 -0.62932 0.62932 0.777146 1053.94 -275.433)" fill="#CCCCCC" style="mix-blend-mode:normal;"/>
</g>
</g>
</g>
<defs>
<path id="path0_fill" d="M 1.0415 26.4199C 0.900879 25.5937 0.830566 24.7588 0.830566 23.915C 0.830566 23.0713 0.896484 22.2407 1.02832 21.4233C 1.16016 20.606 1.35352 19.8105 1.6084 19.0371C 1.87207 18.2549 2.21045 17.5386 2.62354 16.8882C 3.04541 16.229 3.52441 15.6533 4.06055 15.1611C 5.20312 14.1152 6.62256 13.5923 8.31885 13.5923C 10.4722 13.5923 12.1729 14.6689 13.4209 16.8223C 14.0273 17.8682 14.436 18.9448 14.647 20.0522L 14.647 20.0654L 11.9048 20.8037C 11.7642 19.8633 11.5972 19.1777 11.4038 18.7471C 11.2104 18.3076 11.0171 17.9429 10.8237 17.6528C 10.6304 17.354 10.4194 17.1079 10.1909 16.9146C 9.646 16.4663 9.02637 16.2422 8.33203 16.2422C 7.64648 16.2422 7.05762 16.4004 6.56543 16.7168C 6.07324 17.0244 5.66895 17.4331 5.35254 17.9429C 5.03613 18.4438 4.77246 19.0327 4.56152 19.7095C 4.1748 20.9575 3.98145 22.3638 3.98145 23.9282C 3.98145 28.0767 4.96582 30.5552 6.93457 31.3638C 7.35645 31.5396 7.80469 31.6274 8.2793 31.6274C 8.75391 31.6274 9.17578 31.5659 9.54492 31.4429C 9.92285 31.3198 10.2393 31.1616 10.4941 30.9683C 10.749 30.7661 10.9731 30.5288 11.1665 30.2563C 11.3687 29.9839 11.5269 29.7114 11.6411 29.439C 11.7642 29.1577 11.8608 28.8721 11.9312 28.582C 12.063 28.0723 12.1289 27.5977 12.1289 27.1582L 15.0688 27.5669C 14.6733 29.2544 13.9834 30.7178 12.999 31.957C 11.751 33.5039 10.1821 34.2773 8.29248 34.2773C 5.97217 34.2773 4.10449 33.1743 2.68945 30.9683C 1.88965 29.729 1.34033 28.2129 1.0415 26.4199ZM 19.2876 25.3784C 19.2349 25.8442 19.2085 26.3452 19.2085 26.8813C 19.2085 27.4175 19.2349 27.9009 19.2876 28.3315C 19.3403 28.7622 19.4326 29.1929 19.5645 29.6235C 19.7051 30.0542 19.8809 30.4277 20.0918 30.7441C 20.5664 31.4473 21.2344 31.7988 22.0957 31.7988C 24.0029 31.7988 24.9565 30.1948 24.9565 26.9868C 24.9565 25.106 24.6753 23.8008 24.1128 23.0713C 23.6558 22.4736 22.9834 22.1748 22.0957 22.1748C 20.4697 22.1748 19.5337 23.2427 19.2876 25.3784ZM 16.3872 26.9736C 16.3872 24.7764 16.8926 23.0317 17.9033 21.7397C 18.9229 20.439 20.3203 19.7886 22.0957 19.7886C 23.2734 19.7886 24.293 20.0874 25.1543 20.6851C 26.9033 21.9067 27.7778 24.0073 27.7778 26.9868C 27.7778 30.7046 26.6177 32.9854 24.2974 33.8291C 23.6558 34.0664 22.9219 34.1851 22.0957 34.1851C 21.2783 34.1851 20.5444 34.0664 19.894 33.8291C 19.2437 33.5918 18.7031 33.2622 18.2725 32.8403C 17.8418 32.4185 17.4814 31.8999 17.1914 31.2847C 16.6553 30.1421 16.3872 28.7051 16.3872 26.9736ZM 32.8271 21.5024C 33.9697 20.3599 35.2397 19.7886 36.6372 19.7886C 37.4634 19.7886 38.1929 19.9512 38.8257 20.2764C 39.4585 20.6016 39.9243 21.0938 40.2231 21.7529C 41.5327 20.4434 42.8335 19.7886 44.1255 19.7886C 45.2417 19.7886 46.2041 20.0786 47.0127 20.6587C 47.8828 21.2827 48.3179 22.2319 48.3179 23.5063L 48.3179 33.9346L 45.4966 33.9346L 45.4966 24.2446C 45.4966 23.6206 45.2681 23.1196 44.811 22.7417C 44.354 22.3638 43.853 22.1748 43.3081 22.1748C 42.772 22.1748 42.2446 22.333 41.7261 22.6494C 41.2075 22.957 40.8208 23.2646 40.5659 23.5723L 40.5659 33.9346L 37.7446 33.9346L 37.7446 24.2446C 37.7446 23.6118 37.5513 23.1108 37.1646 22.7417C 36.7866 22.3638 36.3296 22.1748 35.7935 22.1748C 35.2661 22.1748 34.6992 22.3374 34.0928 22.6626C 33.4863 22.979 33.0645 23.2822 32.8271 23.5723L 32.8271 33.9346L 30.0059 33.9346L 30.0059 20.0259L 32.8271 20.0259L 32.8271 21.5024ZM 50.9941 33.9346L 50.9941 20.0259L 53.8154 20.0259L 53.8154 33.9346L 50.9941 33.9346ZM 50.7964 18.813L 50.7964 15.6094L 54 15.6094L 54 18.813L 50.7964 18.813ZM 67.0781 23.5063L 67.0781 33.9346L 64.2568 33.9346L 64.2568 24.2446C 64.2568 23.6118 64.0635 23.1108 63.6768 22.7417C 63.2988 22.3638 62.8462 22.1748 62.3188 22.1748C 61.7915 22.1748 61.2686 22.333 60.75 22.6494C 60.2314 22.957 59.8447 23.2646 59.5898 23.5723L 59.5898 33.9346L 56.7686 33.9346L 56.7686 20.0259L 59.5898 20.0259L 59.5898 21.5024C 60.0996 20.9927 60.6313 20.5796 61.1851 20.2632C 61.7476 19.9468 62.4023 19.7886 63.1494 19.7886C 64.292 19.7886 65.2324 20.1006 65.9707 20.7246C 66.709 21.3398 67.0781 22.2671 67.0781 23.5063ZM 78.6797 28.5425C 78.2227 29.0083 77.647 29.373 76.9526 29.6367C 76.2671 29.9004 75.5728 30.0322 74.8696 30.0322C 74.1665 30.0322 73.5908 29.9443 73.1426 29.7686C 73.0635 29.8477 72.9185 29.9575 72.7075 30.0981C 72.2944 30.3794 72.0879 30.6738 72.0879 30.9814C 72.0879 31.3945 72.7515 31.6802 74.0786 31.8384C 74.3247 31.8735 74.4785 31.8955 74.54 31.9043C 74.6016 31.9043 74.7598 31.9087 75.0146 31.9175C 75.2695 31.9175 75.4673 31.9219 75.6079 31.9307C 75.7485 31.9307 75.9727 31.9482 76.2803 31.9834C 76.5967 32.0186 76.8955 32.0669 77.1768 32.1284C 78.6885 32.4712 79.6553 32.8315 80.0771 33.2095C 80.9561 34.0093 81.3955 34.9629 81.3955 36.0703C 81.3955 38.6191 79.2334 39.8936 74.9092 39.8936C 73.1074 39.8936 71.6265 39.5947 70.4663 38.9971C 69.2271 38.3643 68.6074 37.3931 68.6074 36.0835C 68.6074 34.9233 69.4512 34.0225 71.1387 33.3809C 70.6113 33.3105 70.1675 33.082 69.8071 32.6953C 69.4468 32.2998 69.2666 31.834 69.2666 31.2979C 69.2666 30.1729 69.9434 29.3159 71.2969 28.7271C 70.8398 28.4897 70.418 27.9712 70.0312 27.1714C 69.6445 26.3628 69.4512 25.5103 69.4512 24.6138C 69.4512 23.7173 69.7017 22.8911 70.2026 22.1353C 70.7124 21.3794 71.3979 20.7993 72.2593 20.395C 73.1206 19.9907 74.083 19.7886 75.1465 19.7886C 75.6387 19.7886 76.144 19.8853 76.6626 20.0786C 77.1899 20.2632 77.5635 20.4521 77.7832 20.6455C 78.5391 20.1006 79.3477 19.8105 80.209 19.7754C 80.332 19.7666 80.5342 19.7622 80.8154 19.7622C 81.0967 19.7534 81.2988 19.749 81.4219 19.749L 81.4219 22.1221L 81.3691 22.1221C 80.5166 22.0342 79.9453 22.0649 79.6553 22.2144C 79.5674 22.2583 79.5234 22.3022 79.5234 22.3462C 79.5322 22.3901 79.585 22.5483 79.6816 22.8208C 79.7783 23.0933 79.853 23.3042 79.9058 23.4536C 80.0552 23.9458 80.1299 24.4863 80.1299 25.0752C 80.1299 25.6553 80.0024 26.2617 79.7476 26.8945C 79.5015 27.5273 79.1455 28.0767 78.6797 28.5425ZM 74.9751 22.1748C 74.1665 22.1748 73.5117 22.4033 73.0107 22.8604C 72.5186 23.3174 72.2725 23.981 72.2725 24.8511C 72.2725 25.7124 72.4966 26.3936 72.9448 26.8945C 73.4019 27.3867 74.0742 27.6328 74.9619 27.6328C 76.0957 27.6328 76.834 27.0176 77.1768 25.7871C 77.2646 25.4795 77.3086 25.1719 77.3086 24.8643C 77.3086 24.5479 77.2646 24.2402 77.1768 23.9414C 77.0889 23.6426 76.957 23.3569 76.7812 23.0845C 76.3857 22.478 75.7837 22.1748 74.9751 22.1748ZM 71.9033 34.9629C 71.7363 35.165 71.6133 35.3584 71.5342 35.543C 71.4551 35.7275 71.4155 35.9209 71.4155 36.123C 71.4155 36.334 71.4551 36.5098 71.5342 36.6504C 71.6133 36.7998 71.71 36.9185 71.8242 37.0063C 71.9385 37.103 72.0923 37.1865 72.2856 37.2568C 72.4878 37.3271 72.6724 37.3755 72.8394 37.4019C 73.0063 37.437 73.2173 37.4634 73.4722 37.481C 73.8237 37.5073 74.1973 37.5205 74.5928 37.5205C 74.9971 37.5205 75.2871 37.5161 75.4629 37.5073C 75.6475 37.5073 75.8892 37.4985 76.188 37.481C 76.4868 37.4634 76.7329 37.4326 76.9263 37.3887C 77.1196 37.3535 77.3306 37.3008 77.5591 37.2305C 77.7876 37.1602 77.9634 37.0723 78.0864 36.9668C 78.4028 36.7207 78.561 36.4175 78.561 36.0571C 78.561 35.6968 78.4116 35.3979 78.1128 35.1606C 77.814 34.9233 77.436 34.7476 76.979 34.6333C 76.522 34.5278 76.0649 34.4443 75.6079 34.3828C 75.1509 34.3213 74.7158 34.2729 74.3027 34.2378C 73.8984 34.2026 73.6436 34.1631 73.5381 34.1191C 72.6152 34.4883 72.0703 34.7695 71.9033 34.9629ZM 88.6992 28.8193L 91.2305 27.9888C 91.2393 27.9888 91.2568 28.0547 91.2832 28.1865C 91.3096 28.3184 91.3535 28.4941 91.415 28.7139C 91.4854 28.9248 91.5776 29.1621 91.6919 29.4258C 91.8149 29.6807 91.9907 29.9399 92.2192 30.2036C 92.4478 30.4585 92.7158 30.6914 93.0234 30.9023C 93.709 31.3857 94.5615 31.6274 95.5811 31.6274C 96.6006 31.6274 97.3477 31.377 97.8223 30.876C 98.3057 30.375 98.5474 29.7817 98.5474 29.0962C 98.5474 28.4019 98.4771 27.8438 98.3364 27.4219C 98.1958 26.9912 97.9497 26.6177 97.5981 26.3013C 97.0093 25.7739 95.9897 25.2993 94.5396 24.8774C 91.9819 24.1304 90.3384 22.9746 89.6089 21.4102C 89.231 20.5928 89.042 19.6304 89.042 18.5229C 89.042 17.5913 89.3716 16.6816 90.0308 15.7939C 91.1821 14.3262 92.8169 13.5923 94.9351 13.5923C 96.6138 13.5923 97.9893 14.0977 99.0615 15.1084C 99.8262 15.8203 100.397 16.7168 100.775 17.7979L 101.026 18.4966C 101.105 18.7075 101.158 18.8438 101.184 18.9053L 98.6133 19.8149C 98.0332 17.9692 97.1279 16.8311 95.8975 16.4004C 95.5898 16.2949 95.269 16.2422 94.9351 16.2422C 93.1069 16.2422 92.1929 17.1826 92.1929 19.0635C 92.1929 19.9248 92.4478 20.584 92.9575 21.041C 93.3794 21.4365 93.9331 21.7485 94.6187 21.9771L 95.2515 22.188C 95.6118 22.311 95.8096 22.377 95.8447 22.3857L 96.4248 22.5835C 97.9277 23.1108 98.9429 23.5767 99.4702 23.981C 100.244 24.5786 100.749 25.1279 100.986 25.6289C 101.461 26.6572 101.698 27.7427 101.698 28.8853C 101.698 29.7817 101.443 30.6914 100.934 31.6143C 100.248 32.8535 99.1626 33.6665 97.6772 34.0532C 97.106 34.2026 96.4819 34.2773 95.8052 34.2773C 95.1284 34.2773 94.4912 34.2158 93.8936 34.0928C 93.3047 33.9697 92.7949 33.8027 92.3643 33.5918C 91.9336 33.3809 91.5381 33.1392 91.1777 32.8667C 90.8174 32.5942 90.5142 32.3086 90.2681 32.0098C 90.022 31.7021 89.8066 31.3989 89.6221 31.1001C 89.4375 30.7925 89.2881 30.5024 89.1738 30.23C 89.0684 29.9575 88.9805 29.7158 88.9102 29.5049C 88.8398 29.2939 88.7871 29.127 88.752 29.0039C 88.7256 28.8809 88.708 28.8193 88.6992 28.8193ZM 105.798 25.3784C 105.746 25.8442 105.719 26.3452 105.719 26.8813C 105.719 27.4175 105.746 27.9009 105.798 28.3315C 105.851 28.7622 105.943 29.1929 106.075 29.6235C 106.216 30.0542 106.392 30.4277 106.603 30.7441C 107.077 31.4473 107.745 31.7988 108.606 31.7988C 110.514 31.7988 111.467 30.1948 111.467 26.9868C 111.467 25.106 111.186 23.8008 110.624 23.0713C 110.167 22.4736 109.494 22.1748 108.606 22.1748C 106.98 22.1748 106.044 23.2427 105.798 25.3784ZM 102.898 26.9736C 102.898 24.7764 103.403 23.0317 104.414 21.7397C 105.434 20.439 106.831 19.7886 108.606 19.7886C 109.784 19.7886 110.804 20.0874 111.665 20.6851C 113.414 21.9067 114.289 24.0073 114.289 26.9868C 114.289 30.7046 113.128 32.9854 110.808 33.8291C 110.167 34.0664 109.433 34.1851 108.606 34.1851C 107.789 34.1851 107.055 34.0664 106.405 33.8291C 105.754 33.5918 105.214 33.2622 104.783 32.8403C 104.353 32.4185 103.992 31.8999 103.702 31.2847C 103.166 30.1421 102.898 28.7051 102.898 26.9736ZM 118.745 25.3784C 118.692 25.8442 118.666 26.3452 118.666 26.8813C 118.666 27.4175 118.692 27.9009 118.745 28.3315C 118.797 28.7622 118.89 29.1929 119.021 29.6235C 119.162 30.0542 119.338 30.4277 119.549 30.7441C 120.023 31.4473 120.691 31.7988 121.553 31.7988C 123.46 31.7988 124.414 30.1948 124.414 26.9868C 124.414 25.106 124.132 23.8008 123.57 23.0713C 123.113 22.4736 122.44 22.1748 121.553 22.1748C 119.927 22.1748 118.991 23.2427 118.745 25.3784ZM 115.844 26.9736C 115.844 24.7764 116.35 23.0317 117.36 21.7397C 118.38 20.439 119.777 19.7886 121.553 19.7886C 122.73 19.7886 123.75 20.0874 124.611 20.6851C 126.36 21.9067 127.235 24.0073 127.235 26.9868C 127.235 30.7046 126.075 32.9854 123.754 33.8291C 123.113 34.0664 122.379 34.1851 121.553 34.1851C 120.735 34.1851 120.001 34.0664 119.351 33.8291C 118.701 33.5918 118.16 33.2622 117.729 32.8403C 117.299 32.4185 116.938 31.8999 116.648 31.2847C 116.112 30.1421 115.844 28.7051 115.844 26.9736ZM 139.772 23.5063L 139.772 33.9346L 136.951 33.9346L 136.951 24.2446C 136.951 23.6118 136.758 23.1108 136.371 22.7417C 135.993 22.3638 135.541 22.1748 135.013 22.1748C 134.486 22.1748 133.963 22.333 133.444 22.6494C 132.926 22.957 132.539 23.2646 132.284 23.5723L 132.284 33.9346L 129.463 33.9346L 129.463 20.0259L 132.284 20.0259L 132.284 21.5024C 132.794 20.9927 133.326 20.5796 133.879 20.2632C 134.442 19.9468 135.097 19.7886 135.844 19.7886C 136.986 19.7886 137.927 20.1006 138.665 20.7246C 139.403 21.3398 139.772 22.2671 139.772 23.5063Z"/>
<path id="path1_stroke_2x" d="M 1.0415 26.4199L 2.0279 26.2555L 2.02733 26.2521L 1.0415 26.4199ZM 1.6084 19.0371L 0.660763 18.7177L 0.658641 18.7241L 1.6084 19.0371ZM 2.62354 16.8882L 1.78126 16.3491L 1.7794 16.352L 2.62354 16.8882ZM 4.06055 15.1611L 3.38534 14.4235L 3.38428 14.4245L 4.06055 15.1611ZM 13.4209 16.8223L 12.5557 17.3237L 12.5558 17.3239L 13.4209 16.8223ZM 14.647 20.0522L 15.647 20.0522L 15.647 19.9579L 15.6293 19.8651L 14.647 20.0522ZM 14.647 20.0654L 14.9069 21.031L 15.647 20.8318L 15.647 20.0654L 14.647 20.0654ZM 11.9048 20.8037L 10.9158 20.9516L 11.0817 22.0609L 12.1648 21.7693L 11.9048 20.8037ZM 11.4038 18.7471L 10.4885 19.1498L 10.4915 19.1567L 11.4038 18.7471ZM 10.8237 17.6528L 9.98408 18.1961L 9.99168 18.2075L 10.8237 17.6528ZM 10.1909 16.9146L 10.8369 16.1511L 10.8262 16.1423L 10.1909 16.9146ZM 6.56543 16.7168L 7.09547 17.5649L 7.10619 17.558L 6.56543 16.7168ZM 5.35254 17.9429L 6.19805 18.4769L 6.20218 18.4702L 5.35254 17.9429ZM 4.56152 19.7095L 3.60682 19.4119L 3.60633 19.4135L 4.56152 19.7095ZM 6.93457 31.3638L 7.31919 30.4407L 7.31449 30.4387L 6.93457 31.3638ZM 9.54492 31.4429L 9.23533 30.492L 9.22869 30.4942L 9.54492 31.4429ZM 10.4941 30.9683L 11.0985 31.765L 11.1071 31.7584L 11.1155 31.7518L 10.4941 30.9683ZM 11.1665 30.2563L 10.3634 29.6605L 10.3571 29.669L 10.351 29.6776L 11.1665 30.2563ZM 11.6411 29.439L 10.725 29.0381L 10.7219 29.0452L 10.7189 29.0522L 11.6411 29.439ZM 11.9312 28.582L 10.963 28.3316L 10.9611 28.339L 10.9593 28.3464L 11.9312 28.582ZM 12.1289 27.1582L 12.2666 26.1677L 11.1289 26.0096L 11.1289 27.1582L 12.1289 27.1582ZM 15.0688 27.5669L 16.0425 27.7951L 16.2927 26.7274L 15.2065 26.5764L 15.0688 27.5669ZM 12.999 31.957L 13.7773 32.585L 13.7821 32.579L 12.999 31.957ZM 2.68945 30.9683L 3.53118 30.4283L 3.52966 30.426L 2.68945 30.9683ZM 2.02733 26.2521C 1.89291 25.4678 1.82968 24.7168 1.83057 23.915L -0.169434 23.915C -0.168551 24.8008 -0.0911552 25.7197 0.0556827 26.5877L 2.02733 26.2521ZM 1.83057 23.915C 1.82978 23.1109 1.88935 22.36 2.01556 21.5826L 0.0410792 21.2641C -0.0963773 22.1215 -0.16865 23.0317 -0.169434 23.915L 1.83057 23.915ZM 2.01556 21.5826C 2.14038 20.8038 2.31501 20.0854 2.55816 19.3501L 0.658641 18.7241C 0.39202 19.5357 0.179929 20.4081 0.0410792 21.2641L 2.01556 21.5826ZM 2.55601 19.3565C 2.79954 18.6288 3.08631 18.0211 3.46767 17.4243L 1.7794 16.352C 1.33459 17.056 0.944604 17.881 0.660785 18.7177L 2.55601 19.3565ZM 3.46581 17.4272C 3.85246 16.8195 4.24853 16.343 4.73682 15.8978L 3.38428 14.4245C 2.8003 14.9636 2.23836 15.6385 1.78126 16.3491L 3.46581 17.4272ZM 4.73576 15.8988C 5.67578 15.0383 6.84671 14.5923 8.31885 14.5923L 8.31885 12.5923C 6.3984 12.5923 4.73047 13.1922 3.38534 14.4235L 4.73576 15.8988ZM 8.31885 14.5923C 10.0538 14.5923 11.4532 15.4216 12.5557 17.3237L 14.2861 16.3208C 12.8925 13.9163 10.8906 12.5923 8.31885 12.5923L 8.31885 14.5923ZM 12.5558 17.3239C 13.1244 18.2978 13.4737 19.2169 13.6646 20.2394L 15.6293 19.8651C 15.3983 18.6728 14.9303 17.4385 14.286 16.3207L 12.5558 17.3239ZM 13.647 20.0522L 13.647 20.0654L 15.647 20.0654L 15.647 20.0522L 13.647 20.0522ZM 14.387 19.0998L 11.6448 19.8381L 12.1648 21.7693L 14.9069 21.031L 14.387 19.0998ZM 12.8938 20.6558C 12.7504 19.697 12.5681 18.8987 12.3161 18.3375L 10.4915 19.1567C 10.6263 19.4567 10.7779 20.0296 10.9158 20.9516L 12.8938 20.6558ZM 12.3191 18.3443C 12.1105 17.8718 11.876 17.4307 11.6558 17.0981L 9.99168 18.2075C 10.1582 18.4551 10.3104 18.7435 10.4885 19.1498L 12.3191 18.3443ZM 11.6633 17.1096C 11.4316 16.7556 11.1243 16.3986 10.8369 16.1512L 9.54498 17.6779C 9.71458 17.8173 9.82915 17.9524 9.98416 18.1961L 11.6633 17.1096ZM 10.8262 16.1423C 10.1409 15.5974 9.19903 15.2572 8.33203 15.2422L 8.33203 17.2422C 8.85371 17.2272 9.1511 17.3353 9.55565 17.6868L 10.8262 16.1423ZM 8.33203 15.2422C 7.51563 15.2508 6.65269 15.486 6.02467 15.8756L 7.10619 17.558C 7.46254 17.3147 7.77734 17.2336 8.33203 17.2422L 8.33203 15.2422ZM 6.03543 15.8688C 5.44858 16.2435 4.88372 16.8139 4.5029 17.4155L 6.20218 18.4702C 6.45417 18.0523 6.69791 17.8053 7.09543 17.5648L 6.03543 15.8688ZM 4.50705 17.4089C 4.15482 17.9713 3.83712 18.679 3.60682 19.4119L 5.51622 20.007C 5.7078 19.3865 5.91745 18.9164 6.19803 18.4769L 4.50705 17.4089ZM 3.60633 19.4135C 3.19859 20.7407 2.98378 22.2955 2.98145 23.9282L 4.98145 23.9282C 4.97911 22.432 5.15102 21.1743 5.51672 20.0054L 3.60633 19.4135ZM 2.98145 23.9282C 2.98145 26.0663 3.23294 27.8641 3.79034 29.2676C 4.35579 30.6913 5.25905 31.7567 6.55465 32.2888L 7.31449 30.4387C 6.64134 30.1623 6.06804 29.5841 5.64911 28.5293C 5.22214 27.4543 4.98145 25.9386 4.98145 23.9282L 2.98145 23.9282ZM 6.54996 32.2868C 7.06646 32.4966 7.70803 32.6228 8.2793 32.6274L 8.2793 30.6274C 7.90135 30.6321 7.64643 30.5825 7.31919 30.4407L 6.54996 32.2868ZM 8.2793 32.6274C 8.82625 32.6248 9.40695 32.5388 9.86115 32.3916L 9.22869 30.4942C 8.94461 30.593 8.68156 30.6301 8.2793 30.6274L 8.2793 32.6274ZM 9.85451 32.3937C 10.3023 32.245 10.7673 32.0108 11.0985 31.765L 9.88975 30.1716C 9.71119 30.3124 9.5434 30.3946 9.23534 30.492L 9.85451 32.3937ZM 11.1155 31.7518C 11.425 31.5031 11.7463 31.163 11.982 30.8351L 10.351 29.6776C 10.2 29.8946 10.0731 30.0292 9.87275 30.1848L 11.1155 31.7518ZM 11.9696 30.8522C 12.2039 30.5337 12.4222 30.1568 12.5633 29.8257L 10.7189 29.0522C 10.6315 29.2661 10.5334 29.434 10.3634 29.6605L 11.9696 30.8522ZM 12.5573 29.8398C 12.6967 29.5188 12.8213 29.1504 12.903 28.8176L 10.9593 28.3464C 10.9004 28.5937 10.8316 28.7967 10.725 29.0381L 12.5573 29.8398ZM 12.8993 28.8324C 13.0439 28.2666 13.1265 27.6666 13.1289 27.1582L 11.1289 27.1582C 11.1313 27.5287 11.082 27.878 10.963 28.3316L 12.8993 28.8324ZM 11.9912 28.1487L 14.9312 28.5574L 15.2065 26.5764L 12.2666 26.1677L 11.9912 28.1487ZM 14.0952 27.3387C 13.7291 28.9253 13.134 30.19 12.216 31.335L 13.7821 32.579C 14.8328 31.2455 15.6176 29.5835 16.0425 27.7951L 14.0952 27.3387ZM 12.2207 31.3291C 11.1512 32.6547 9.86218 33.2773 8.29248 33.2773L 8.29248 35.2773C 10.5021 35.2773 12.3508 34.3531 13.7773 32.585L 12.2207 31.3291ZM 8.29248 33.2773C 6.36175 33.2773 4.7904 32.3915 3.53118 30.4284L 1.84773 31.5082C 3.41858 33.9571 5.58259 35.2773 8.29248 35.2773L 8.29248 33.2773ZM 3.52966 30.426C 2.78554 29.2847 2.30765 27.9593 2.0279 26.2555L 0.05511 26.5843C 0.373017 28.4665 0.993759 30.1733 1.84924 31.5105L 3.52966 30.426ZM 19.2876 25.3784L 18.2942 25.2639L 18.2939 25.2659L 19.2876 25.3784ZM 19.5645 29.6235L 18.6083 29.9162L 18.611 29.9251L 18.6138 29.9339L 19.5645 29.6235ZM 20.0918 30.7441L 19.2597 31.2988L 19.2629 31.3036L 20.0918 30.7441ZM 24.1128 23.0713L 23.3184 23.6787L 23.3209 23.6819L 24.1128 23.0713ZM 17.9033 21.7397L 17.1163 21.1229L 17.1157 21.1236L 17.9033 21.7397ZM 25.1543 20.6851L 25.7269 19.8652L 25.7244 19.8635L 25.1543 20.6851ZM 24.2974 33.8291L 23.9556 32.8893L 23.9505 32.8912L 24.2974 33.8291ZM 17.1914 31.2847L 16.2861 31.7095L 16.2869 31.7111L 17.1914 31.2847ZM 18.2939 25.2659C 18.2383 25.7617 18.2088 26.3189 18.2085 26.8813L 20.2085 26.8813C 20.2082 26.3715 20.2314 25.9268 20.2813 25.4909L 18.2939 25.2659ZM 18.2085 26.8813C 18.2089 27.4447 18.2387 27.9889 18.295 28.4531L 20.2802 28.21C 20.231 27.8128 20.2081 27.3902 20.2085 26.8813L 18.2085 26.8813ZM 18.295 28.4531C 18.3542 28.9279 18.4647 29.4442 18.6083 29.9162L 20.5207 29.3308C 20.4005 28.9415 20.3265 28.5965 20.2802 28.21L 18.295 28.4531ZM 18.6138 29.9339C 18.7756 30.423 19.01 30.9193 19.2597 31.2988L 20.9238 30.1894C 20.7517 29.9361 20.6346 29.6854 20.5151 29.3131L 18.6138 29.9339ZM 19.2629 31.3036C 19.9269 32.2872 20.9082 32.7988 22.0957 32.7988L 22.0957 30.7988C 21.5606 30.7988 21.2059 30.6073 20.9206 30.1847L 19.2629 31.3036ZM 22.0957 32.7988C 23.3924 32.7988 24.439 32.2202 25.1009 31.1069C 25.7141 30.0755 25.9565 28.6572 25.9565 26.9868L 23.9565 26.9868C 23.9565 28.5244 23.7222 29.5122 23.3818 30.0848C 23.09 30.5755 22.7062 30.7988 22.0957 30.7988L 22.0957 32.7988ZM 25.9565 26.9868C 25.9565 25.0762 25.6848 23.4724 24.9047 22.4607L 23.3209 23.6819C 23.6658 24.1292 23.9565 25.1357 23.9565 26.9868L 25.9565 26.9868ZM 24.9072 22.4638C 24.2256 21.5726 23.2318 21.1748 22.0957 21.1748L 22.0957 23.1748C 22.735 23.1748 23.0859 23.3746 23.3184 23.6787L 24.9072 22.4638ZM 22.0957 21.1748C 21.041 21.1748 20.1086 21.5334 19.4222 22.3165C 18.7676 23.0633 18.4293 24.0916 18.2942 25.2639L 20.281 25.4929C 20.392 24.5295 20.6448 23.9559 20.9262 23.6349C 21.1758 23.3501 21.5244 23.1748 22.0957 23.1748L 22.0957 21.1748ZM 17.3872 26.9736C 17.3872 24.9241 17.8581 23.4205 18.6909 22.3559L 17.1157 21.1236C 15.9271 22.6429 15.3872 24.6286 15.3872 26.9736L 17.3872 26.9736ZM 18.6904 22.3566C 19.5047 21.3177 20.6013 20.7886 22.0957 20.7886L 22.0957 18.7886C 20.0393 18.7886 18.341 19.5603 17.1163 21.1229L 18.6904 22.3566ZM 22.0957 20.7886C 23.1314 20.7784 23.8617 20.9896 24.5842 21.5066L 25.7244 19.8635C 24.7242 19.1852 23.4155 18.7987 22.0957 18.7886L 22.0957 20.7886ZM 24.5817 21.5049C 25.9657 22.4716 26.7778 24.1941 26.7778 26.9868L 28.7778 26.9868C 28.7778 23.8205 27.841 21.3419 25.7269 19.8652L 24.5817 21.5049ZM 26.7778 26.9868C 26.7778 30.5349 25.6881 32.2593 23.9556 32.8893L 24.6391 34.7689C 27.5473 33.7114 28.7778 30.8743 28.7778 26.9868L 26.7778 26.9868ZM 23.9505 32.8912C 23.4013 33.0993 22.8418 33.1883 22.0957 33.1851L 22.0957 35.1851C 23.0019 35.1818 23.9102 35.0335 24.6443 34.767L 23.9505 32.8912ZM 22.0957 33.1851C 21.3584 33.1883 20.7967 33.0988 20.2368 32.8897L 19.5513 34.7685C 20.2921 35.0341 21.1983 35.1818 22.0957 35.1851L 22.0957 33.1851ZM 20.2368 32.8897C 19.6775 32.6908 19.3173 32.473 18.9722 32.126L 17.5727 33.5547C 18.089 34.0514 18.8098 34.4928 19.5513 34.7685L 20.2368 32.8897ZM 18.9722 32.126C 18.6057 31.7731 18.3473 31.3996 18.0959 30.8582L 16.2869 31.7111C 16.6156 32.4002 17.0779 33.0638 17.5727 33.5547L 18.9722 32.126ZM 18.0967 30.8599C 17.6071 29.8355 17.383 28.613 17.3872 26.9736L 15.3872 26.9736C 15.3915 28.7972 15.7034 30.4487 16.2861 31.7095L 18.0967 30.8599ZM 32.8271 21.5024L 31.8271 21.5024L 31.8271 23.9167L 33.5343 22.2095L 32.8271 21.5024ZM 38.8257 20.2764L 39.2828 19.3869L 39.2828 19.3869L 38.8257 20.2764ZM 40.2231 21.7529L 39.3124 22.1658L 39.9088 23.4815L 40.9303 22.46L 40.2231 21.7529ZM 47.0127 20.6587L 46.4298 21.4712L 46.4299 21.4713L 47.0127 20.6587ZM 48.3179 33.9346L 48.3179 34.9346L 49.3179 34.9346L 49.3179 33.9346L 48.3179 33.9346ZM 45.4966 33.9346L 44.4966 33.9346L 44.4966 34.9346L 45.4966 34.9346L 45.4966 33.9346ZM 41.7261 22.6494L 42.2363 23.5095L 42.2469 23.5031L 41.7261 22.6494ZM 40.5659 23.5723L 39.7959 22.9342L 39.5659 23.2118L 39.5659 23.5723L 40.5659 23.5723ZM 40.5659 33.9346L 40.5659 34.9346L 41.5659 34.9346L 41.5659 33.9346L 40.5659 33.9346ZM 37.7446 33.9346L 36.7446 33.9346L 36.7446 34.9346L 37.7446 34.9346L 37.7446 33.9346ZM 37.1646 22.7417L 36.4574 23.4488L 36.4657 23.457L 36.4741 23.4651L 37.1646 22.7417ZM 34.0928 22.6626L 34.5554 23.5492L 34.5653 23.5439L 34.0928 22.6626ZM 32.8271 23.5723L 32.0532 22.939L 31.8271 23.2153L 31.8271 23.5723L 32.8271 23.5723ZM 32.8271 33.9346L 32.8271 34.9346L 33.8271 34.9346L 33.8271 33.9346L 32.8271 33.9346ZM 30.0059 33.9346L 29.0059 33.9346L 29.0059 34.9346L 30.0059 34.9346L 30.0059 33.9346ZM 30.0059 20.0259L 30.0059 19.0259L 29.0059 19.0259L 29.0059 20.0259L 30.0059 20.0259ZM 32.8271 20.0259L 33.8271 20.0259L 33.8271 19.0259L 32.8271 19.0259L 32.8271 20.0259ZM 33.5343 22.2095C 34.521 21.2228 35.5467 20.7886 36.6372 20.7886L 36.6372 18.7886C 34.9328 18.7886 33.4184 19.497 32.12 20.7953L 33.5343 22.2095ZM 36.6372 20.7886C 37.3539 20.7826 37.8528 20.8916 38.3686 21.1658L 39.2828 19.3869C 38.533 19.0108 37.5728 18.7946 36.6372 18.7886L 36.6372 20.7886ZM 38.3686 21.1658C 38.8583 21.4014 39.0944 21.6516 39.3124 22.1658L 41.1339 21.34C 40.7543 20.5359 40.0587 19.8017 39.2828 19.3869L 38.3686 21.1658ZM 40.9303 22.46C 42.1341 21.2562 43.1955 20.7886 44.1255 20.7886L 44.1255 18.7886C 42.4715 18.7886 40.9314 19.6305 39.516 21.0458L 40.9303 22.46ZM 44.1255 20.7886C 45.0959 20.7779 45.7624 20.9758 46.4298 21.4712L 47.5956 19.8462C 46.6458 19.1815 45.3875 18.7993 44.1255 18.7886L 44.1255 20.7886ZM 46.4299 21.4713C 46.9862 21.8703 47.3179 22.4846 47.3179 23.5063L 49.3179 23.5063C 49.3179 21.9793 48.7794 20.6951 47.5955 19.8461L 46.4299 21.4713ZM 47.3179 23.5063L 47.3179 33.9346L 49.3179 33.9346L 49.3179 23.5063L 47.3179 23.5063ZM 48.3179 32.9346L 45.4966 32.9346L 45.4966 34.9346L 48.3179 34.9346L 48.3179 32.9346ZM 46.4966 33.9346L 46.4966 24.2446L 44.4966 24.2446L 44.4966 33.9346L 46.4966 33.9346ZM 46.4966 24.2446C 46.4966 23.3404 46.1485 22.5501 45.4483 21.9711L 44.1738 23.5123C 44.3876 23.6892 44.4966 23.9008 44.4966 24.2446L 46.4966 24.2446ZM 45.4483 21.9711C 44.8559 21.4989 44.0324 21.191 43.3081 21.1748L 43.3081 23.1748C 43.6737 23.1586 43.8521 23.2287 44.1738 23.5123L 45.4483 21.9711ZM 43.3081 21.1748C 42.6268 21.1854 41.8372 21.4198 41.2052 21.7958L 42.2469 23.5031C 42.6521 23.2462 42.9172 23.1642 43.3081 23.1748L 43.3081 21.1748ZM 41.2159 21.7894C 40.6398 22.1338 40.1208 22.5505 39.7959 22.9342L 41.3359 24.2103C 41.5208 23.9788 41.7752 23.7803 42.2363 23.5095L 41.2159 21.7894ZM 39.5659 23.5723L 39.5659 33.9346L 41.5659 33.9346L 41.5659 23.5723L 39.5659 23.5723ZM 40.5659 32.9346L 37.7446 32.9346L 37.7446 34.9346L 40.5659 34.9346L 40.5659 32.9346ZM 38.7446 33.9346L 38.7446 24.2446L 36.7446 24.2446L 36.7446 33.9346L 38.7446 33.9346ZM 38.7446 24.2446C 38.7446 23.3929 38.4756 22.6107 37.855 22.0183L 36.4741 23.4651C 36.627 23.611 36.7446 23.8307 36.7446 24.2446L 38.7446 24.2446ZM 37.8717 22.0346C 37.3055 21.4685 36.5939 21.1748 35.7935 21.1748L 35.7935 23.1748C 36.0653 23.1748 36.2677 23.2591 36.4574 23.4488L 37.8717 22.0346ZM 35.7935 21.1748C 35.1269 21.1845 34.3229 21.4109 33.6202 21.7813L 34.5653 23.5439C 35.0755 23.2639 35.4053 23.1651 35.7935 23.1748L 35.7935 21.1748ZM 33.6302 21.776C 32.9865 22.1119 32.4201 22.4906 32.0532 22.939L 33.6011 24.2055C 33.7088 24.0738 33.9861 23.8462 34.5553 23.5492L 33.6302 21.776ZM 31.8271 23.5723L 31.8271 33.9346L 33.8271 33.9346L 33.8271 23.5723L 31.8271 23.5723ZM 32.8271 32.9346L 30.0059 32.9346L 30.0059 34.9346L 32.8271 34.9346L 32.8271 32.9346ZM 31.0059 33.9346L 31.0059 20.0259L 29.0059 20.0259L 29.0059 33.9346L 31.0059 33.9346ZM 30.0059 21.0259L 32.8271 21.0259L 32.8271 19.0259L 30.0059 19.0259L 30.0059 21.0259ZM 31.8271 20.0259L 31.8271 21.5024L 33.8271 21.5024L 33.8271 20.0259L 31.8271 20.0259ZM 50.9941 33.9346L 49.9941 33.9346L 49.9941 34.9346L 50.9941 34.9346L 50.9941 33.9346ZM 50.9941 20.0259L 50.9941 19.0259L 49.9941 19.0259L 49.9941 20.0259L 50.9941 20.0259ZM 53.8154 20.0259L 54.8154 20.0259L 54.8154 19.0259L 53.8154 19.0259L 53.8154 20.0259ZM 53.8154 33.9346L 53.8154 34.9346L 54.8154 34.9346L 54.8154 33.9346L 53.8154 33.9346ZM 50.7964 18.813L 49.7964 18.813L 49.7964 19.813L 50.7964 19.813L 50.7964 18.813ZM 50.7964 15.6094L 50.7964 14.6094L 49.7964 14.6094L 49.7964 15.6094L 50.7964 15.6094ZM 54 15.6094L 55 15.6094L 55 14.6094L 54 14.6094L 54 15.6094ZM 54 18.813L 54 19.813L 55 19.813L 55 18.813L 54 18.813ZM 51.9941 33.9346L 51.9941 20.0259L 49.9941 20.0259L 49.9941 33.9346L 51.9941 33.9346ZM 50.9941 21.0259L 53.8154 21.0259L 53.8154 19.0259L 50.9941 19.0259L 50.9941 21.0259ZM 52.8154 20.0259L 52.8154 33.9346L 54.8154 33.9346L 54.8154 20.0259L 52.8154 20.0259ZM 53.8154 32.9346L 50.9941 32.9346L 50.9941 34.9346L 53.8154 34.9346L 53.8154 32.9346ZM 51.7964 18.813L 51.7964 15.6094L 49.7964 15.6094L 49.7964 18.813L 51.7964 18.813ZM 50.7964 16.6094L 54 16.6094L 54 14.6094L 50.7964 14.6094L 50.7964 16.6094ZM 53 15.6094L 53 18.813L 55 18.813L 55 15.6094L 53 15.6094ZM 54 17.813L 50.7964 17.813L 50.7964 19.813L 54 19.813L 54 17.813ZM 67.0781 33.9346L 67.0781 34.9346L 68.0781 34.9346L 68.0781 33.9346L 67.0781 33.9346ZM 64.2568 33.9346L 63.2568 33.9346L 63.2568 34.9346L 64.2568 34.9346L 64.2568 33.9346ZM 63.6768 22.7417L 62.9697 23.4488L 62.9779 23.457L 62.9863 23.4651L 63.6768 22.7417ZM 60.75 22.6494L 61.2602 23.5095L 61.2709 23.5031L 60.75 22.6494ZM 59.5898 23.5723L 58.8198 22.9342L 58.5898 23.2118L 58.5898 23.5723L 59.5898 23.5723ZM 59.5898 33.9346L 59.5898 34.9346L 60.5898 34.9346L 60.5898 33.9346L 59.5898 33.9346ZM 56.7686 33.9346L 55.7686 33.9346L 55.7686 34.9346L 56.7686 34.9346L 56.7686 33.9346ZM 56.7686 20.0259L 56.7686 19.0259L 55.7686 19.0259L 55.7686 20.0259L 56.7686 20.0259ZM 59.5898 20.0259L 60.5898 20.0259L 60.5898 19.0259L 59.5898 19.0259L 59.5898 20.0259ZM 59.5898 21.5024L 58.5898 21.5024L 58.5898 23.9167L 60.297 22.2095L 59.5898 21.5024ZM 61.1851 20.2632L 60.6948 19.3916L 60.6889 19.3949L 61.1851 20.2632ZM 65.9707 20.7246L 65.3252 21.4884L 65.3305 21.4928L 65.9707 20.7246ZM 66.0781 23.5063L 66.0781 33.9346L 68.0781 33.9346L 68.0781 23.5063L 66.0781 23.5063ZM 67.0781 32.9346L 64.2568 32.9346L 64.2568 34.9346L 67.0781 34.9346L 67.0781 32.9346ZM 65.2568 33.9346L 65.2568 24.2446L 63.2568 24.2446L 63.2568 33.9346L 65.2568 33.9346ZM 65.2568 24.2446C 65.2568 23.3929 64.9878 22.6107 64.3672 22.0183L 62.9863 23.4651C 63.1392 23.611 63.2568 23.8307 63.2568 24.2446L 65.2568 24.2446ZM 64.3839 22.0346C 63.8212 21.472 63.1154 21.1748 62.3188 21.1748L 62.3188 23.1748C 62.577 23.1748 62.7764 23.2556 62.9697 23.4488L 64.3839 22.0346ZM 62.3188 21.1748C 61.6451 21.1856 60.86 21.4203 60.2291 21.7958L 61.2709 23.5031C 61.6771 23.2458 61.9379 23.164 62.3188 23.1748L 62.3188 21.1748ZM 60.2398 21.7894C 59.6638 22.1338 59.1447 22.5505 58.8198 22.9342L 60.3599 24.2103C 60.5447 23.9788 60.7991 23.7803 61.2602 23.5095L 60.2398 21.7894ZM 58.5898 23.5723L 58.5898 33.9346L 60.5898 33.9346L 60.5898 23.5723L 58.5898 23.5723ZM 59.5898 32.9346L 56.7686 32.9346L 56.7686 34.9346L 59.5898 34.9346L 59.5898 32.9346ZM 57.7686 33.9346L 57.7686 20.0259L 55.7686 20.0259L 55.7686 33.9346L 57.7686 33.9346ZM 56.7686 21.0259L 59.5898 21.0259L 59.5898 19.0259L 56.7686 19.0259L 56.7686 21.0259ZM 58.5898 20.0259L 58.5898 21.5024L 60.5898 21.5024L 60.5898 20.0259L 58.5898 20.0259ZM 60.297 22.2095C 60.7612 21.7425 61.1875 21.4106 61.6812 21.1314L 60.6889 19.3949C 60.0751 19.7485 59.438 20.2428 58.8827 20.7953L 60.297 22.2095ZM 61.6753 21.1348C 62.1136 20.8774 62.5206 20.7816 63.1494 20.7886L 63.1494 18.7886C 62.2841 18.7956 61.3815 19.0162 60.6948 19.3916L 61.6753 21.1348ZM 63.1494 20.7886C 64.1008 20.7886 64.7991 21.0437 65.3252 21.4883L 66.6162 19.9609C 65.6658 19.1575 64.4832 18.7886 63.1494 18.7886L 63.1494 20.7886ZM 65.3305 21.4928C 65.7782 21.8659 66.0781 22.4713 66.0781 23.5063L 68.0781 23.5063C 68.0781 22.0629 67.6398 20.8138 66.6109 19.9564L 65.3305 21.4928ZM 78.6797 28.5425L 77.9725 27.8353L 77.9659 27.8421L 78.6797 28.5425ZM 76.9526 29.6367L 76.5976 28.7018L 76.5937 28.7034L 76.9526 29.6367ZM 73.1426 29.7686L 73.5077 28.8376L 72.8983 28.5986L 72.4355 29.0614L 73.1426 29.7686ZM 72.7075 30.0981L 72.1528 29.2661L 72.1447 29.2715L 72.7075 30.0981ZM 74.0786 31.8384L 74.22 30.8484L 74.2085 30.8468L 74.197 30.8454L 74.0786 31.8384ZM 74.54 31.9043L 74.3986 32.8942L 74.469 32.9043L 74.54 32.9043L 74.54 31.9043ZM 75.0146 31.9175L 74.9802 32.9169L 74.9974 32.9175L 75.0146 32.9175L 75.0146 31.9175ZM 75.6079 31.9307L 75.5455 32.9287L 75.5767 32.9307L 75.6079 32.9307L 75.6079 31.9307ZM 76.2803 31.9834L 76.1667 32.9769L 76.1698 32.9773L 76.2803 31.9834ZM 77.1768 32.1284L 77.3979 31.1531L 77.3905 31.1515L 77.1768 32.1284ZM 80.0771 33.2095L 80.7502 32.4698L 80.7444 32.4646L 80.0771 33.2095ZM 70.4663 38.9971L 70.9243 38.1081L 70.9211 38.1065L 70.4663 38.9971ZM 71.1387 33.3809L 71.4941 34.3156L 71.2708 32.3896L 71.1387 33.3809ZM 69.8071 32.6953L 69.0679 33.3688L 69.0755 33.377L 69.8071 32.6953ZM 71.2969 28.7271L 71.6958 29.644L 73.6204 28.8067L 71.7577 27.8396L 71.2969 28.7271ZM 70.0312 27.1714L 69.1291 27.6028L 69.131 27.6067L 70.0312 27.1714ZM 70.2026 22.1353L 69.3735 21.5761L 69.3691 21.5828L 70.2026 22.1353ZM 72.2593 20.395L 71.8344 19.4898L 71.8344 19.4898L 72.2593 20.395ZM 76.6626 20.0786L 76.3132 21.0156L 76.3227 21.0191L 76.3322 21.0225L 76.6626 20.0786ZM 77.7832 20.6455L 77.1226 21.3962L 77.7212 21.923L 78.368 21.4567L 77.7832 20.6455ZM 80.209 19.7754L 80.2498 20.7746L 80.265 20.7739L 80.2802 20.7728L 80.209 19.7754ZM 80.8154 19.7622L 80.8154 20.7622L 80.831 20.7622L 80.8467 20.7617L 80.8154 19.7622ZM 81.4219 19.749L 82.4219 19.749L 82.4219 18.749L 81.4219 18.749L 81.4219 19.749ZM 81.4219 22.1221L 81.4219 23.1221L 82.4219 23.1221L 82.4219 22.1221L 81.4219 22.1221ZM 81.3691 22.1221L 81.2666 23.1168L 81.3177 23.1221L 81.3691 23.1221L 81.3691 22.1221ZM 79.6553 22.2144L 80.1025 23.1088L 80.1132 23.1033L 79.6553 22.2144ZM 79.5234 22.3462L 78.5234 22.3462L 78.5234 22.4452L 78.5429 22.5423L 79.5234 22.3462ZM 79.9058 23.4536L 80.8626 23.1631L 80.8562 23.1418L 80.8488 23.1208L 79.9058 23.4536ZM 79.7476 26.8945L 78.8199 26.5209L 78.8156 26.5321L 79.7476 26.8945ZM 73.0107 22.8604L 72.3368 22.1216L 72.3303 22.1276L 73.0107 22.8604ZM 72.9448 26.8945L 72.1996 27.5613L 72.2057 27.5682L 72.212 27.575L 72.9448 26.8945ZM 77.1768 25.7871L 76.2152 25.5124L 76.2134 25.5188L 77.1768 25.7871ZM 76.7812 23.0845L 77.6216 22.5423L 77.6189 22.5382L 76.7812 23.0845ZM 71.9033 34.9629L 71.1465 34.3093L 71.1393 34.3176L 71.1324 34.326L 71.9033 34.9629ZM 71.5342 36.6504L 72.418 36.1825L 72.412 36.1712L 72.4058 36.1601L 71.5342 36.6504ZM 71.8242 37.0063L 72.4702 36.243L 72.4524 36.2279L 72.4339 36.2137L 71.8242 37.0063ZM 72.2856 37.2568L 71.9439 38.1967L 71.9571 38.2013L 72.2856 37.2568ZM 72.8394 37.4019L 73.0454 36.4233L 73.0205 36.4181L 72.9953 36.4141L 72.8394 37.4019ZM 73.4722 37.481L 73.547 36.4837L 73.541 36.4833L 73.4722 37.481ZM 75.4629 37.5073L 75.4629 36.5073L 75.4379 36.5073L 75.413 36.5086L 75.4629 37.5073ZM 76.9263 37.3887L 76.7474 36.4048L 76.7259 36.4087L 76.7046 36.4135L 76.9263 37.3887ZM 78.0864 36.9668L 77.4725 36.1774L 77.4537 36.1921L 77.4356 36.2075L 78.0864 36.9668ZM 76.979 34.6333L 77.2215 33.6632L 77.2127 33.661L 77.2039 33.6589L 76.979 34.6333ZM 75.6079 34.3828L 75.7413 33.3918L 75.7413 33.3918L 75.6079 34.3828ZM 74.3027 34.2378L 74.2161 35.234L 74.2179 35.2342L 74.3027 34.2378ZM 73.5381 34.1191L 73.9227 33.1961L 73.5458 33.039L 73.1667 33.1907L 73.5381 34.1191ZM 77.9659 27.8421C 77.594 28.2306 77.1996 28.4787 76.5976 28.7019L 77.3076 30.5716C 78.0944 30.2674 78.8513 29.786 79.3935 29.2428L 77.9659 27.8421ZM 76.5937 28.7034C 75.9932 28.9386 75.4791 29.0366 74.8696 29.0322L 74.8696 31.0322C 75.6664 31.0278 76.541 30.8622 77.3116 30.5701L 76.5937 28.7034ZM 74.8696 29.0322C 74.2422 29.0351 73.8504 28.9786 73.5077 28.8376L 72.7775 30.6995C 73.3312 30.9101 74.0908 31.0294 74.8696 31.0322L 74.8696 29.0322ZM 72.4355 29.0614C 72.4444 29.0513 72.4226 29.0743 72.3706 29.1132C 72.3122 29.1576 72.2478 29.2028 72.1528 29.2661L 73.2622 30.9302C 73.498 30.7725 73.7205 30.6015 73.8497 30.4757L 72.4355 29.0614ZM 72.1447 29.2715C 71.6323 29.6204 71.0879 30.1769 71.0879 30.9814L 73.0879 30.9814C 73.0879 31.0187 73.0813 31.0522 73.0725 31.0777C 73.0642 31.1019 73.0569 31.1107 73.0615 31.1042C 73.0741 31.0862 73.1275 31.022 73.2703 30.9247L 72.1447 29.2715ZM 71.0879 30.9814C 71.0879 31.8311 71.7853 32.2497 72.1902 32.424C 72.6557 32.6244 73.2676 32.7488 73.9602 32.8313L 74.197 30.8454C 73.5625 30.7698 73.179 30.6722 72.981 30.587C 72.8831 30.5448 72.8926 30.5315 72.9374 30.5787C 72.9995 30.6441 73.0879 30.7861 73.0879 30.9814L 71.0879 30.9814ZM 73.9372 32.8283C 74.1833 32.8635 74.3371 32.8855 74.3986 32.8942L 74.6815 30.9143C 74.6199 30.9056 74.4661 30.8836 74.22 30.8484L 73.9372 32.8283ZM 74.54 32.9043C 74.5877 32.9042 74.7287 32.9082 74.9802 32.9169L 75.0491 30.9181C 74.7909 30.9092 74.6154 30.9044 74.54 30.9043L 74.54 32.9043ZM 75.0146 32.9175C 75.2584 32.9174 75.425 32.921 75.5455 32.9287L 75.6703 30.9326C 75.5096 30.9228 75.2806 30.9175 75.0146 30.9175L 75.0146 32.9175ZM 75.6079 32.9307C 75.7094 32.9299 75.8768 32.9436 76.1667 32.9769L 76.3938 30.9899C 76.0685 30.9528 75.7877 30.9314 75.6079 30.9307L 75.6079 32.9307ZM 76.1698 32.9773C 76.4616 33.0094 76.7087 33.0493 76.9631 33.1053L 77.3905 31.1515C 77.0823 31.0845 76.7318 31.0277 76.3907 30.9895L 76.1698 32.9773ZM 76.9556 33.1037C 77.6855 33.2688 78.2409 33.4259 78.6864 33.5928C 79.1328 33.7592 79.3395 33.8912 79.4099 33.9543L 80.7444 32.4646C 80.3929 32.1498 79.9053 31.9127 79.3849 31.7187C 78.8636 31.5253 78.1797 31.3308 77.3979 31.1532L 76.9556 33.1037ZM 79.4041 33.9491C 80.0919 34.5749 80.3955 35.2668 80.3955 36.0703L 82.3955 36.0703C 82.3955 34.659 81.8203 33.4436 80.7502 32.4699L 79.4041 33.9491ZM 80.3955 36.0703C 80.3955 36.9975 80.0364 37.6223 79.2661 38.0763C 78.4135 38.5788 77.0058 38.8936 74.9092 38.8936L 74.9092 40.8936C 77.1368 40.8936 78.9722 40.5711 80.2817 39.7992C 81.6736 38.9788 82.3955 37.692 82.3955 36.0703L 80.3955 36.0703ZM 74.9092 38.8936C 73.2094 38.8936 71.8993 38.6104 70.9243 38.1081L 70.0084 39.886C 71.3536 40.5791 73.0055 40.8936 74.9092 40.8936L 74.9092 38.8936ZM 70.9211 38.1065C 69.9902 37.6311 69.6074 36.9888 69.6074 36.0835L 67.6074 36.0835C 67.6074 37.7974 68.4639 39.0974 70.0115 39.8877L 70.9211 38.1065ZM 69.6074 36.0835C 69.6074 35.5528 69.9457 34.9043 71.4941 34.3156L 70.7833 32.4461C 68.9566 33.1406 67.6074 34.2938 67.6074 36.0835L 69.6074 36.0835ZM 71.2708 32.3896C 70.9107 32.3564 70.7711 32.2848 70.5387 32.0136L 69.0755 33.377C 69.5638 33.8793 70.312 34.2647 71.0065 34.3721L 71.2708 32.3896ZM 70.5463 32.0218C 70.2972 31.7737 70.2496 31.6505 70.2666 31.2979L 68.2666 31.2979C 68.2836 32.0175 68.5963 32.8259 69.0679 33.3688L 70.5463 32.0218ZM 70.2666 31.2979C 70.2666 30.7019 70.5698 30.1339 71.6958 29.644L 70.8979 27.8101C 69.3169 28.4979 68.2666 29.6438 68.2666 31.2979L 70.2666 31.2979ZM 71.7577 27.8396C 71.5873 27.7511 71.2854 27.4679 70.9315 26.7361L 69.131 27.6067C 69.5506 28.4745 70.0924 29.2284 70.8361 29.6145L 71.7577 27.8396ZM 70.9334 26.7399C 70.5891 26.0344 70.445 25.399 70.4512 24.6138L 68.4512 24.6138C 68.4574 25.6215 68.7 26.6912 69.1291 27.6028L 70.9334 26.7399ZM 70.4512 24.6138C 70.4404 23.8639 70.6065 23.3169 71.0362 22.6877L 69.3691 21.5828C 68.7968 22.4653 68.462 23.5706 68.4512 24.6138L 70.4512 24.6138ZM 71.0317 22.6944C 71.4569 22.047 71.9381 21.6409 72.6842 21.3003L 71.8344 19.4898C 70.8578 19.9577 69.9679 20.7118 69.3736 21.5761L 71.0317 22.6944ZM 72.6842 21.3003C 73.438 20.939 74.1863 20.7832 75.1465 20.7886L 75.1465 18.7886C 73.9797 18.7939 72.8032 19.0424 71.8344 19.4898L 72.6842 21.3003ZM 75.1465 20.7886C 75.5443 20.7841 75.8745 20.8482 76.3132 21.0156L 77.012 19.1416C 76.4136 18.9223 75.733 18.793 75.1465 18.7886L 75.1465 20.7886ZM 76.3322 21.0225C 76.8282 21.1961 77.0518 21.3339 77.1226 21.3962L 78.4438 19.8948C 78.0752 19.5704 77.5517 19.3303 76.9929 19.1348L 76.3322 21.0225ZM 78.368 21.4567C 79.0048 20.9855 79.5391 20.7921 80.2498 20.7746L 80.1682 18.7762C 79.1562 18.829 78.0733 19.2157 77.1984 19.8343L 78.368 21.4567ZM 80.2802 20.7728C 80.3785 20.7655 80.545 20.7621 80.8154 20.7622L 80.8154 18.7622C 80.5233 18.7623 80.2855 18.7677 80.1377 18.7779L 80.2802 20.7728ZM 80.8467 20.7617C 81.1232 20.7531 81.3097 20.749 81.4219 20.749L 81.4219 18.749C 81.288 18.7491 81.0702 18.7538 80.7842 18.7627L 80.8467 20.7617ZM 80.4219 19.749L 80.4219 22.1221L 82.4219 22.1221L 82.4219 19.749L 80.4219 19.749ZM 81.4219 21.1221L 81.3691 21.1221L 81.3691 23.1221L 81.4219 23.1221L 81.4219 21.1221ZM 81.4717 21.1273C 81.0142 21.0807 80.5801 21.0639 80.2475 21.0807C 79.9114 21.0988 79.529 21.1545 79.1973 21.3254L 80.1132 23.1033C 80.0715 23.1248 80.1198 23.0904 80.355 23.0778C 80.5938 23.0638 80.8715 23.0756 81.2666 23.1168L 81.4717 21.1273ZM 79.2081 21.3199C 79.1094 21.3714 78.9444 21.485 78.8493 21.5732C 78.7183 21.7041 78.5234 21.9655 78.5234 22.3462L 80.5234 22.3462C 80.5234 22.683 80.3505 22.9004 80.2635 22.9874C 80.1785 23.0724 80.1056 23.1072 80.1025 23.1088L 79.2081 21.3199ZM 78.5429 22.5423C 78.5698 22.6769 78.6586 22.928 78.7392 23.1552L 80.6241 22.4864C 80.5769 22.3535 80.5427 22.2549 80.5183 22.1816C 80.5067 22.1469 80.5003 22.127 80.4949 22.1094C 80.4875 22.085 80.4957 22.1083 80.504 22.1501L 78.5429 22.5423ZM 78.7392 23.1552C 78.8358 23.4274 78.9102 23.6375 78.9628 23.7864L 80.8488 23.1208C 80.7958 22.9709 80.7208 22.7591 80.6241 22.4864L 78.7392 23.1552ZM 78.9489 23.7441C 79.0784 24.1602 79.1322 24.5549 79.1299 25.0752L 81.1299 25.0752C 81.1275 24.4177 81.0319 23.7314 80.8626 23.1631L 78.9489 23.7441ZM 79.1299 25.0752C 79.1352 25.5519 79.0456 25.971 78.82 26.5209L 80.6751 27.2681C 80.9592 26.5525 81.1245 25.7587 81.1299 25.0752L 79.1299 25.0752ZM 78.8156 26.5321C 78.6112 27.0718 78.368 27.4477 77.9726 27.8354L 79.3868 29.2496C 79.923 28.7056 80.3917 27.9828 80.6796 27.257L 78.8156 26.5321ZM 74.9751 21.1748C 73.9679 21.1748 73.0563 21.4652 72.3368 22.1216L 73.6847 23.5991C 73.9671 23.3415 74.3651 23.1748 74.9751 23.1748L 74.9751 21.1748ZM 72.3303 22.1276C 71.5784 22.8257 71.2725 23.7896 71.2725 24.8511L 73.2725 24.8511C 73.2725 24.1723 73.4587 23.8091 73.6912 23.5931L 72.3303 22.1276ZM 71.2725 24.8511C 71.2725 25.8871 71.5453 26.83 72.1996 27.5613L 73.6901 26.2277C 73.4479 25.9571 73.2725 25.5377 73.2725 24.8511L 71.2725 24.8511ZM 72.212 27.575C 72.9138 28.3308 73.8899 28.6328 74.9619 28.6328L 74.9619 26.6328C 74.2585 26.6328 73.8899 26.4427 73.6776 26.2141L 72.212 27.575ZM 74.9619 28.6328C 75.7187 28.6328 76.4261 28.423 77.0062 27.9396C 77.5751 27.4655 77.9319 26.8029 78.1401 26.0555L 76.2134 25.5188C 76.0789 26.0018 75.8951 26.2621 75.7258 26.4032C 75.5675 26.535 75.3389 26.6328 74.9619 26.6328L 74.9619 28.6328ZM 78.1383 26.0618C 78.2427 25.688 78.3061 25.2428 78.3086 24.8643L 76.3086 24.8643C 76.3111 25.101 76.2866 25.2709 76.2152 25.5124L 78.1383 26.0618ZM 78.3086 24.8643C 78.3061 24.477 78.2418 24.0279 78.1361 23.6592L 76.2174 24.2236C 76.2875 24.4526 76.3111 24.6187 76.3086 24.8643L 78.3086 24.8643ZM 78.1361 23.6592C 78.025 23.291 77.8333 22.8752 77.6215 22.5423L 75.941 23.6266C 76.0807 23.8387 76.1527 23.9941 76.2174 24.2236L 78.1361 23.6592ZM 77.6189 22.5382C 77.0147 21.6118 76.0751 21.1748 74.9751 21.1748L 74.9751 23.1748C 75.4923 23.1748 75.7568 23.3443 75.9436 23.6307L 77.6189 22.5382ZM 71.1324 34.326C 70.9275 34.577 70.729 34.8915 70.615 35.149L 72.4533 35.9369C 72.4976 35.8253 72.5452 35.753 72.6743 35.5998L 71.1324 34.326ZM 70.615 35.149C 70.5007 35.4288 70.4206 35.8202 70.4155 36.123L 72.4155 36.123C 72.4104 36.0216 72.4094 36.0262 72.4533 35.9369L 70.615 35.149ZM 70.4155 36.123C 70.4216 36.4444 70.5216 36.8684 70.6626 37.1407L 72.4058 36.1601C 72.419 36.1838 72.4217 36.1976 72.4208 36.1936C 72.4197 36.1887 72.4155 36.1669 72.4155 36.123L 70.4155 36.123ZM 70.6504 37.1183C 70.7797 37.3523 71.0128 37.6354 71.2145 37.799L 72.4339 36.2137C 72.4417 36.2197 72.4438 36.2229 72.4413 36.2198C 72.4384 36.2163 72.43 36.2051 72.418 36.1825L 70.6504 37.1183ZM 71.1783 37.7697C 71.374 37.9285 71.6817 38.0984 71.9439 38.1966L 72.6274 36.317C 72.5064 36.273 72.4674 36.2406 72.4702 36.243L 71.1783 37.7697ZM 71.9571 38.2013C 72.1966 38.2838 72.4674 38.3543 72.6834 38.3896L 72.9953 36.4141C 72.8773 36.3967 72.779 36.3705 72.6142 36.3123L 71.9571 38.2013ZM 72.6333 38.3804C 72.8412 38.4233 73.1208 38.4587 73.4034 38.4786L 73.541 36.4833C 73.3137 36.468 73.1715 36.4507 73.0454 36.4233L 72.6333 38.3804ZM 73.3974 38.4782C 73.7687 38.5058 74.1796 38.5204 74.5928 38.5205L 74.5928 36.5205C 74.2149 36.5207 73.8788 36.5088 73.547 36.4838L 73.3974 38.4782ZM 74.5928 38.5205C 75.0046 38.5205 75.3197 38.5156 75.5128 38.5061L 75.413 36.5086C 75.2546 36.5166 74.9895 36.5205 74.5928 36.5205L 74.5928 38.5205ZM 75.4629 38.5073C 75.6656 38.5072 75.9367 38.4974 76.2467 38.4792L 76.1293 36.4827C 75.8416 36.4997 75.6293 36.5075 75.4629 36.5073L 75.4629 38.5073ZM 76.2467 38.4792C 76.5782 38.4592 76.906 38.4175 77.1479 38.3638L 76.7046 36.4135C 76.5599 36.4477 76.3954 36.4676 76.1293 36.4827L 76.2467 38.4792ZM 77.1052 38.3725C 77.3305 38.331 77.599 38.2641 77.8532 38.1862L 77.265 36.2747C 77.0622 36.3375 76.9088 36.376 76.7474 36.4048L 77.1052 38.3725ZM 77.8532 38.1862C 78.1595 38.0884 78.5165 37.9053 78.7372 37.7261L 77.4356 36.2075C 77.4477 36.1972 77.4448 36.2026 77.4151 36.2174C 77.3857 36.2321 77.3375 36.2524 77.265 36.2747L 77.8532 38.1862ZM 78.7004 37.7561C 79.2291 37.3449 79.561 36.7636 79.561 36.0571L 77.561 36.0571C 77.561 36.0851 77.5564 36.0911 77.5558 36.0922C 77.5535 36.0966 77.5367 36.1275 77.4725 36.1774L 78.7004 37.7561ZM 79.561 36.0571C 79.561 35.3716 79.2561 34.7916 78.7347 34.3775L 77.4909 35.9438C 77.5423 35.9846 77.5538 36.0084 77.5545 36.01C 77.5556 36.012 77.5566 36.0145 77.5578 36.0195C 77.5589 36.0247 77.561 36.0365 77.561 36.0571L 79.561 36.0571ZM 78.7347 34.3775C 78.3394 34.0725 77.7697 33.8049 77.2215 33.6632L 76.7365 35.6034C 77.1024 35.6903 77.2885 35.7742 77.4909 35.9438L 78.7347 34.3775ZM 77.2039 33.6589C 76.7243 33.5485 76.2215 33.4567 75.7413 33.3918L 75.4745 35.3739C 75.9083 35.432 76.3196 35.5071 76.7541 35.6077L 77.2039 33.6589ZM 75.7413 33.3918C 75.2728 33.3288 74.8134 33.2777 74.3875 33.2414L 74.2179 35.2342C 74.6182 35.2682 75.0289 35.3138 75.4745 35.3739L 75.7413 33.3918ZM 74.3894 33.2416C 74.2002 33.2252 74.0688 33.2104 73.9617 33.1936C 73.9132 33.1862 73.895 33.1829 73.8709 33.1771C 73.8513 33.1725 73.8761 33.1766 73.9227 33.1961L 73.1535 35.0422C 73.3271 35.1146 73.522 35.1493 73.655 35.1699C 73.8028 35.1927 74.001 35.2152 74.2161 35.234L 74.3894 33.2416ZM 73.1667 33.1907C 72.6883 33.3822 72.2776 33.5645 71.9786 33.7183C 71.7081 33.8579 71.3694 34.0511 71.1465 34.3093L 72.6601 35.6165C 72.6042 35.6813 72.6215 35.6372 72.8959 35.4956C 73.1418 35.3681 73.465 35.2252 73.9095 35.0476L 73.1667 33.1907ZM 88.6992 28.8193L 88.3874 27.8692L 88.6992 29.8193L 88.6992 28.8193ZM 91.2305 27.9888L 91.2305 26.9888L 91.0706 26.9888L 90.9187 27.0386L 91.2305 27.9888ZM 91.415 28.7139L 90.4521 28.9835L 90.4586 29.007L 90.4664 29.0301L 91.415 28.7139ZM 91.6919 29.4258L 90.7743 29.8234L 90.7825 29.8421L 90.7913 29.8605L 91.6919 29.4258ZM 92.2192 30.2036L 91.4635 30.8585L 91.4691 30.8649L 91.4747 30.8712L 92.2192 30.2036ZM 93.0234 30.9023L 93.5998 30.085L 93.589 30.0776L 93.0234 30.9023ZM 97.8223 30.876L 97.1026 30.1816L 97.0963 30.1882L 97.8223 30.876ZM 98.3364 27.4219L 97.3858 27.7323L 97.3877 27.7381L 98.3364 27.4219ZM 97.5981 26.3013L 98.2671 25.558L 98.2653 25.5563L 97.5981 26.3013ZM 94.5396 24.8774L 94.2592 25.8373L 94.2602 25.8376L 94.5396 24.8774ZM 89.6089 21.4102L 88.7012 21.8298L 88.7026 21.8328L 89.6089 21.4102ZM 90.0308 15.7939L 89.244 15.1767L 89.2358 15.1872L 89.2279 15.1978L 90.0308 15.7939ZM 99.0615 15.1084L 98.3756 15.8361L 98.3801 15.8403L 99.0615 15.1084ZM 100.775 17.7979L 99.8314 18.1279L 99.8341 18.1353L 100.775 17.7979ZM 101.026 18.4966L 100.085 18.834L 100.087 18.8409L 100.09 18.8477L 101.026 18.4966ZM 101.184 18.9053L 101.518 19.848L 102.524 19.4921L 102.103 18.5114L 101.184 18.9053ZM 98.6133 19.8149L 97.6593 20.1148L 97.97 21.1033L 98.9469 20.7577L 98.6133 19.8149ZM 95.8975 16.4004L 96.2278 15.4565L 96.2218 15.4544L 95.8975 16.4004ZM 92.9575 21.041L 93.6415 20.3115L 93.6333 20.3039L 93.6251 20.2964L 92.9575 21.041ZM 94.6187 21.9771L 94.9349 21.0284L 94.9349 21.0284L 94.6187 21.9771ZM 95.2515 22.188L 95.5746 21.2416L 95.5677 21.2393L 95.2515 22.188ZM 95.8447 22.3857L 96.1674 21.4392L 96.1278 21.4257L 96.0873 21.4156L 95.8447 22.3857ZM 96.4248 22.5835L 96.7559 21.6399L 96.7475 21.637L 96.4248 22.5835ZM 99.4702 23.981L 100.082 23.1897L 100.079 23.1874L 99.4702 23.981ZM 100.986 25.6289L 101.894 25.2098L 101.89 25.2008L 100.986 25.6289ZM 100.934 31.6143L 101.809 32.0983L 101.809 32.0978L 100.934 31.6143ZM 97.6772 34.0532L 97.4253 33.0855L 97.4242 33.0858L 97.6772 34.0532ZM 93.8936 34.0928L 93.689 35.0716L 93.6919 35.0722L 93.8936 34.0928ZM 91.1777 32.8667L 91.7808 32.069L 91.7808 32.069L 91.1777 32.8667ZM 90.2681 32.0098L 89.4872 32.6345L 89.4916 32.64L 89.4961 32.6455L 90.2681 32.0098ZM 89.6221 31.1001L 88.7645 31.6146L 88.7713 31.6256L 89.6221 31.1001ZM 89.1738 30.23L 88.2413 30.591L 88.2463 30.6039L 88.2516 30.6167L 89.1738 30.23ZM 88.752 29.0039L 87.7742 29.2134L 87.7812 29.2463L 87.7904 29.2786L 88.752 29.0039ZM 89.011 29.7695L 91.5422 28.9389L 90.9187 27.0386L 88.3874 27.8692L 89.011 29.7695ZM 91.2305 28.9888C 90.9096 28.9888 90.69 28.8394 90.592 28.7578C 90.4903 28.673 90.4294 28.5874 90.4021 28.5466C 90.3463 28.4628 90.3175 28.3907 90.3102 28.3725C 90.2988 28.344 90.2919 28.3223 90.2892 28.3136C 90.2907 28.3186 90.2839 28.2956 90.284 28.2959C 90.2804 28.2832 90.2916 28.3271 90.3026 28.3826L 92.2638 27.9904C 92.2485 27.9141 92.2305 27.8338 92.2165 27.7805C 92.2066 27.7443 92.1844 27.6749 92.1672 27.6297C 92.1511 27.5914 92.1027 27.4959 92.0662 27.4372C 92.0328 27.3899 91.9376 27.2806 91.8724 27.2213C 91.7732 27.1387 91.5524 26.9888 91.2305 26.9888L 91.2305 28.9888ZM 90.3026 28.3826C 90.3339 28.5377 90.3869 28.7502 90.4521 28.9835L 92.378 28.4442C 92.3202 28.238 92.2852 28.099 92.2638 27.9904L 90.3026 28.3826ZM 90.4664 29.0301C 90.5447 29.2642 90.6527 29.5422 90.7743 29.8234L 92.6095 29.0282C 92.5026 28.782 92.426 28.5854 92.3637 28.3976L 90.4664 29.0301ZM 90.7913 29.8605C 90.9485 30.1799 91.1976 30.5491 91.4635 30.8585L 92.9749 29.5487C 92.7838 29.3308 92.6814 29.1814 92.5924 28.991L 90.7913 29.8605ZM 91.4747 30.8712C 91.7462 31.1711 92.1041 31.4825 92.4579 31.7271L 93.589 30.0776C 93.3275 29.9003 93.1493 29.7459 92.9638 29.5361L 91.4747 30.8712ZM 92.4472 31.7196C 93.2783 32.2883 94.4238 32.6179 95.5811 32.6274L 95.5811 30.6274C 94.6992 30.637 94.1396 30.4832 93.5997 30.0851L 92.4472 31.7196ZM 95.5811 32.6274C 96.7438 32.6274 97.8102 32.3427 98.5482 31.5637L 97.0963 30.1882C 96.8851 30.4112 96.4574 30.6274 95.5811 30.6274L 95.5811 32.6274ZM 98.5419 31.5703C 99.202 30.8862 99.5474 30.0452 99.5474 29.0962L 97.5474 29.0962C 97.5474 29.5183 97.4093 29.8638 97.1026 30.1816L 98.5419 31.5703ZM 99.5474 29.0962C 99.5454 28.3392 99.4522 27.6221 99.2851 27.1056L 97.3877 27.7381C 97.5019 28.0654 97.5493 28.4645 97.5474 29.0962L 99.5474 29.0962ZM 99.287 27.1115C 99.0966 26.5571 98.7079 25.9656 98.2671 25.558L 96.9292 27.0446C 97.1915 27.2697 97.295 27.4254 97.3858 27.7323L 99.287 27.1115ZM 98.2653 25.5563C 97.5039 24.8745 96.3051 24.3496 94.8189 23.9172L 94.2602 25.8376C 95.6744 26.249 96.5147 26.6734 96.931 27.0462L 98.2653 25.5563ZM 94.8199 23.9176C 92.3888 23.2074 91.0699 22.1771 90.5152 20.9875L 88.7026 21.8328C 89.6069 23.7722 91.575 25.0533 94.2592 25.8373L 94.8199 23.9176ZM 90.5166 20.9905C 90.1822 20.2844 90.0373 19.5336 90.042 18.5229L 88.042 18.5229C 88.0467 19.7272 88.2797 20.9011 88.7012 21.8298L 90.5166 20.9905ZM 90.042 18.5229C 90.0269 17.7642 90.2524 17.1551 90.8336 16.3901L 89.2279 15.1978C 88.4907 16.2082 88.0571 17.4184 88.042 18.5229L 90.042 18.5229ZM 90.8176 16.4111C 91.752 15.2199 93.0768 14.5923 94.9351 14.5923L 94.9351 12.5923C 92.5569 12.5923 90.6122 13.4325 89.244 15.1767L 90.8176 16.4111ZM 94.9351 14.5923C 96.397 14.5923 97.515 15.0248 98.3756 15.8361L 99.7474 14.3807C 98.4635 13.1705 96.8305 12.5923 94.9351 12.5923L 94.9351 14.5923ZM 98.3801 15.8403C 99.0576 16.4601 99.4978 17.1534 99.8314 18.1279L 101.719 17.4678C 101.297 16.2802 100.595 15.1805 99.7429 14.3765L 98.3801 15.8403ZM 99.8341 18.1353L 100.085 18.834L 101.967 18.1591L 101.717 17.4604L 99.8341 18.1353ZM 100.09 18.8477C 100.171 19.0636 100.232 19.2213 100.265 19.2992L 102.103 18.5114C 102.084 18.4662 102.039 18.3515 101.962 18.1455L 100.09 18.8477ZM 100.851 17.9626L 98.2797 18.8722L 98.9469 20.7577L 101.518 19.848L 100.851 17.9626ZM 99.5673 19.5151C 98.9403 17.5202 97.8797 16.0347 96.2278 15.4565L 95.5671 17.3442C 96.3761 17.6274 97.1261 18.4183 97.6593 20.1148L 99.5673 19.5151ZM 96.2218 15.4544C 95.834 15.3252 95.3504 15.2455 94.9351 15.2422L 94.9351 17.2422C 95.1877 17.2389 95.3457 17.2647 95.5731 17.3463L 96.2218 15.4544ZM 94.9351 15.2422C 93.8595 15.2422 92.8709 15.5205 92.1613 16.2505C 91.4569 16.9753 91.1929 17.9759 91.1929 19.0635L 93.1929 19.0635C 93.1929 18.2702 93.3859 17.8602 93.5955 17.6445C 93.8 17.4341 94.1825 17.2422 94.9351 17.2422L 94.9351 15.2422ZM 91.1929 19.0635C 91.1929 20.1303 91.5164 21.092 92.29 21.7856L 93.6251 20.2964C 93.3791 20.0759 93.1929 19.7193 93.1929 19.0635L 91.1929 19.0635ZM 92.2736 21.7706C 92.7877 22.2427 93.5277 22.6627 94.3024 22.9257L 94.9349 21.0284C 94.3385 20.8344 93.9711 20.6304 93.6415 20.3115L 92.2736 21.7706ZM 94.3024 22.9257L 94.9352 23.1367L 95.5677 21.2393L 94.9349 21.0284L 94.3024 22.9257ZM 94.9283 23.1343C 95.2532 23.2453 95.5134 23.3337 95.6022 23.3559L 96.0873 21.4156C 96.1164 21.4229 96.1303 21.4281 96.0933 21.4162C 96.0676 21.408 96.0337 21.3968 95.9863 21.381C 95.8896 21.3488 95.7536 21.3027 95.5746 21.2416L 94.9283 23.1343ZM 95.5221 23.3323L 96.1021 23.53L 96.7475 21.637L 96.1674 21.4392L 95.5221 23.3323ZM 96.0937 23.5271C 97.5975 24.0547 98.4742 24.4774 98.8618 24.7746L 100.079 23.1874C 99.4116 22.6759 98.258 22.167 96.7559 21.6399L 96.0937 23.5271ZM 98.8588 24.7722C 99.5891 25.3366 99.9462 25.769 100.083 26.057L 101.89 25.2008C 101.552 24.4869 100.898 23.8206 100.082 23.1897L 98.8588 24.7722ZM 100.078 26.048C 100.513 26.9754 100.704 27.8501 100.698 28.8853L 102.698 28.8853C 102.692 27.6353 102.409 26.339 101.894 25.2098L 100.078 26.048ZM 100.698 28.8853C 100.708 29.6456 100.518 30.3122 100.058 31.1307L 101.809 32.0978C 102.369 31.0706 102.689 29.9179 102.698 28.8853L 100.698 28.8853ZM 100.059 31.1302C 99.5175 32.1082 98.6702 32.7614 97.4253 33.0855L 97.9292 35.021C 99.655 34.5716 100.979 33.5988 101.809 32.0983L 100.059 31.1302ZM 97.4242 33.0858C 96.9196 33.2202 96.4224 33.2791 95.8052 33.2773L 95.8052 35.2773C 96.5415 35.2756 97.2923 35.1851 97.9303 35.0207L 97.4242 33.0858ZM 95.8052 33.2773C 95.1765 33.2785 94.6403 33.227 94.0952 33.1133L 93.6919 35.0722C 94.3421 35.2046 95.0803 35.2762 95.8052 35.2773L 95.8052 33.2773ZM 94.0981 33.1139C 93.563 33.0037 93.1714 32.8763 92.8041 32.6937L 91.9244 34.4899C 92.4184 34.7292 93.0464 34.9358 93.689 35.0716L 94.0981 33.1139ZM 92.8041 32.6937C 92.4148 32.5042 92.1011 32.3127 91.7808 32.069L 90.5746 33.6644C 90.9751 33.9656 91.4524 34.2575 91.9244 34.4899L 92.8041 32.6937ZM 91.7808 32.069C 91.4627 31.8303 91.2444 31.6254 91.04 31.3741L 89.4961 32.6455C 89.7839 32.9918 90.172 33.3581 90.5746 33.6644L 91.7808 32.069ZM 91.0489 31.3851C 90.8204 31.1001 90.6401 30.8464 90.4729 30.5746L 88.7713 31.6256C 88.9731 31.9515 89.2235 32.3042 89.4872 32.6345L 91.0489 31.3851ZM 90.4796 30.5856C 90.3112 30.306 90.1944 30.0798 90.096 29.8433L 88.2516 30.6167C 88.3818 30.9251 88.5638 31.279 88.7646 31.6146L 90.4796 30.5856ZM 90.1064 29.869C 90.0046 29.6061 89.9248 29.3868 89.8588 29.1887L 87.9615 29.8211C 88.0361 30.0448 88.1321 30.3089 88.2413 30.591L 90.1064 29.869ZM 89.8588 29.1887C 89.791 28.9853 89.7448 28.839 89.7135 28.7292L 87.7904 29.2786C 87.8295 29.4149 87.8887 29.6026 87.9615 29.8211L 89.8588 29.1887ZM 89.7298 28.7944C 89.7141 28.7218 89.6952 28.643 89.6805 28.5908C 89.6699 28.5546 89.6455 28.4832 89.6266 28.437C 89.609 28.3977 89.5561 28.3003 89.5167 28.241C 89.4812 28.1941 89.3819 28.0876 89.3149 28.0307C 89.2114 27.9502 88.9994 27.8193 88.6992 27.8193L 88.6992 29.8193C 88.4002 29.8193 88.1893 29.6889 88.087 29.6094C 87.9831 29.5286 87.9192 29.4455 87.8892 29.4035C 87.8286 29.3187 87.7969 29.2448 87.7883 29.2248C 87.7754 29.1946 87.7674 29.1714 87.7641 29.1615C 87.766 29.1675 87.757 29.1389 87.7575 29.1402C 87.7546 29.1309 87.7634 29.163 87.7742 29.2134L 89.7298 28.7944ZM 105.798 25.3784L 104.805 25.2639L 104.805 25.2659L 105.798 25.3784ZM 106.075 29.6235L 105.119 29.9162L 105.122 29.9251L 105.125 29.9339L 106.075 29.6235ZM 106.603 30.7441L 105.77 31.2988L 105.774 31.3036L 106.603 30.7441ZM 110.624 23.0713L 109.829 23.6787L 109.832 23.6819L 110.624 23.0713ZM 104.414 21.7397L 103.627 21.1229L 103.626 21.1236L 104.414 21.7397ZM 111.665 20.6851L 112.238 19.8652L 112.235 19.8635L 111.665 20.6851ZM 110.808 33.8291L 110.466 32.8893L 110.461 32.8912L 110.808 33.8291ZM 103.702 31.2847L 102.797 31.7095L 102.798 31.7111L 103.702 31.2847ZM 104.805 25.2659C 104.749 25.7617 104.72 26.3189 104.719 26.8813L 106.719 26.8813C 106.719 26.3715 106.742 25.9268 106.792 25.4909L 104.805 25.2659ZM 104.719 26.8813C 104.72 27.4447 104.749 27.9889 104.806 28.4531L 106.791 28.21C 106.742 27.8128 106.719 27.3902 106.719 26.8813L 104.719 26.8813ZM 104.806 28.4531C 104.865 28.9279 104.975 29.4442 105.119 29.9162L 107.031 29.3308C 106.911 28.9415 106.837 28.5965 106.791 28.21L 104.806 28.4531ZM 105.125 29.9339C 105.286 30.423 105.521 30.9193 105.77 31.2988L 107.435 30.1894C 107.262 29.9361 107.145 29.6854 107.026 29.3131L 105.125 29.9339ZM 105.774 31.3036C 106.438 32.2872 107.419 32.7988 108.606 32.7988L 108.606 30.7988C 108.071 30.7988 107.717 30.6073 107.431 30.1847L 105.774 31.3036ZM 108.606 32.7988C 109.903 32.7988 110.95 32.2202 111.612 31.1069C 112.225 30.0755 112.467 28.6572 112.467 26.9868L 110.467 26.9868C 110.467 28.5244 110.233 29.5122 109.893 30.0848C 109.601 30.5755 109.217 30.7988 108.606 30.7988L 108.606 32.7988ZM 112.467 26.9868C 112.467 25.0762 112.196 23.4724 111.415 22.4607L 109.832 23.6819C 110.177 24.1292 110.467 25.1357 110.467 26.9868L 112.467 26.9868ZM 111.418 22.4638C 110.736 21.5726 109.743 21.1748 108.606 21.1748L 108.606 23.1748C 109.246 23.1748 109.597 23.3746 109.829 23.6787L 111.418 22.4638ZM 108.606 21.1748C 107.552 21.1748 106.619 21.5334 105.933 22.3165C 105.278 23.0633 104.94 24.0916 104.805 25.2639L 106.792 25.4929C 106.903 24.5295 107.156 23.9559 107.437 23.6349C 107.687 23.3501 108.035 23.1748 108.606 23.1748L 108.606 21.1748ZM 103.898 26.9736C 103.898 24.9241 104.369 23.4205 105.202 22.3559L 103.626 21.1236C 102.438 22.6429 101.898 24.6286 101.898 26.9736L 103.898 26.9736ZM 105.201 22.3566C 106.015 21.3177 107.112 20.7886 108.606 20.7886L 108.606 18.7886C 106.55 18.7886 104.852 19.5603 103.627 21.1229L 105.201 22.3566ZM 108.606 20.7886C 109.642 20.7784 110.372 20.9896 111.095 21.5066L 112.235 19.8635C 111.235 19.1852 109.926 18.7987 108.606 18.7886L 108.606 20.7886ZM 111.092 21.5049C 112.476 22.4716 113.289 24.1941 113.289 26.9868L 115.289 26.9868C 115.289 23.8205 114.352 21.3419 112.238 19.8652L 111.092 21.5049ZM 113.289 26.9868C 113.289 30.5349 112.199 32.2593 110.466 32.8893L 111.15 34.7689C 114.058 33.7114 115.289 30.8743 115.289 26.9868L 113.289 26.9868ZM 110.461 32.8912C 109.912 33.0993 109.353 33.1883 108.606 33.1851L 108.606 35.1851C 109.513 35.1818 110.421 35.0335 111.155 34.767L 110.461 32.8912ZM 108.606 33.1851C 107.869 33.1883 107.307 33.0988 106.748 32.8897L 106.062 34.7685C 106.803 35.0341 107.709 35.1818 108.606 35.1851L 108.606 33.1851ZM 106.748 32.8897C 106.188 32.6908 105.828 32.473 105.483 32.126L 104.083 33.5547C 104.6 34.0514 105.321 34.4928 106.062 34.7685L 106.748 32.8897ZM 105.483 32.126C 105.116 31.7731 104.858 31.3996 104.607 30.8582L 102.798 31.7111C 103.126 32.4002 103.589 33.0638 104.083 33.5547L 105.483 32.126ZM 104.607 30.8599C 104.118 29.8355 103.894 28.613 103.898 26.9736L 101.898 26.9736C 101.902 28.7972 102.214 30.4487 102.797 31.7095L 104.607 30.8599ZM 118.745 25.3784L 117.751 25.2639L 117.751 25.2659L 118.745 25.3784ZM 119.021 29.6235L 118.065 29.9162L 118.068 29.9251L 118.071 29.9339L 119.021 29.6235ZM 119.549 30.7441L 118.717 31.2988L 118.72 31.3036L 119.549 30.7441ZM 123.57 23.0713L 122.775 23.6787L 122.778 23.6819L 123.57 23.0713ZM 117.36 21.7397L 116.573 21.1229L 116.573 21.1236L 117.36 21.7397ZM 124.611 20.6851L 125.184 19.8652L 125.181 19.8635L 124.611 20.6851ZM 123.754 33.8291L 123.413 32.8893L 123.407 32.8912L 123.754 33.8291ZM 116.648 31.2847L 115.743 31.7095L 115.744 31.7111L 116.648 31.2847ZM 117.751 25.2659C 117.695 25.7617 117.666 26.3189 117.666 26.8813L 119.666 26.8813C 119.665 26.3715 119.688 25.9268 119.738 25.4909L 117.751 25.2659ZM 117.666 26.8813C 117.666 27.4447 117.696 27.9889 117.752 28.4531L 119.737 28.21C 119.688 27.8128 119.665 27.3902 119.666 26.8813L 117.666 26.8813ZM 117.752 28.4531C 117.811 28.9279 117.922 29.4442 118.065 29.9162L 119.978 29.3308C 119.858 28.9415 119.784 28.5965 119.737 28.21L 117.752 28.4531ZM 118.071 29.9339C 118.233 30.423 118.467 30.9193 118.717 31.2988L 120.381 30.1894C 120.209 29.9361 120.092 29.6854 119.972 29.3131L 118.071 29.9339ZM 118.72 31.3036C 119.384 32.2872 120.365 32.7988 121.553 32.7988L 121.553 30.7988C 121.018 30.7988 120.663 30.6073 120.378 30.1847L 118.72 31.3036ZM 121.553 32.7988C 122.849 32.7988 123.896 32.2202 124.558 31.1069C 125.171 30.0755 125.414 28.6572 125.414 26.9868L 123.414 26.9868C 123.414 28.5244 123.179 29.5122 122.839 30.0848C 122.547 30.5755 122.163 30.7988 121.553 30.7988L 121.553 32.7988ZM 125.414 26.9868C 125.414 25.0762 125.142 23.4724 124.362 22.4607L 122.778 23.6819C 123.123 24.1292 123.414 25.1357 123.414 26.9868L 125.414 26.9868ZM 124.364 22.4638C 123.683 21.5726 122.689 21.1748 121.553 21.1748L 121.553 23.1748C 122.192 23.1748 122.543 23.3746 122.775 23.6787L 124.364 22.4638ZM 121.553 21.1748C 120.498 21.1748 119.566 21.5334 118.879 22.3165C 118.225 23.0633 117.886 24.0916 117.751 25.2639L 119.738 25.4929C 119.849 24.5295 120.102 23.9559 120.383 23.6349C 120.633 23.3501 120.981 23.1748 121.553 23.1748L 121.553 21.1748ZM 116.844 26.9736C 116.844 24.9241 117.315 23.4205 118.148 22.3559L 116.573 21.1236C 115.384 22.6429 114.844 24.6286 114.844 26.9736L 116.844 26.9736ZM 118.147 22.3566C 118.962 21.3177 120.058 20.7886 121.553 20.7886L 121.553 18.7886C 119.496 18.7886 117.798 19.5603 116.573 21.1229L 118.147 22.3566ZM 121.553 20.7886C 122.588 20.7784 123.319 20.9896 124.041 21.5066L 125.181 19.8635C 124.181 19.1852 122.873 18.7987 121.553 18.7886L 121.553 20.7886ZM 124.039 21.5049C 125.423 22.4716 126.235 24.1941 126.235 26.9868L 128.235 26.9868C 128.235 23.8205 127.298 21.3419 125.184 19.8652L 124.039 21.5049ZM 126.235 26.9868C 126.235 30.5349 125.145 32.2593 123.413 32.8893L 124.096 34.7689C 127.004 33.7114 128.235 30.8743 128.235 26.9868L 126.235 26.9868ZM 123.407 32.8912C 122.858 33.0993 122.299 33.1883 121.553 33.1851L 121.553 35.1851C 122.459 35.1818 123.367 35.0335 124.101 34.767L 123.407 32.8912ZM 121.553 33.1851C 120.815 33.1883 120.254 33.0988 119.694 32.8897L 119.008 34.7685C 119.749 35.0341 120.655 35.1818 121.553 35.1851L 121.553 33.1851ZM 119.694 32.8897C 119.134 32.6908 118.774 32.473 118.429 32.126L 117.03 33.5547C 117.546 34.0514 118.267 34.4928 119.008 34.7685L 119.694 32.8897ZM 118.429 32.126C 118.063 31.7731 117.804 31.3996 117.553 30.8582L 115.744 31.7111C 116.073 32.4002 116.535 33.0638 117.03 33.5547L 118.429 32.126ZM 117.554 30.8599C 117.064 29.8355 116.84 28.613 116.844 26.9736L 114.844 26.9736C 114.848 28.7972 115.16 30.4487 115.743 31.7095L 117.554 30.8599ZM 139.772 33.9346L 139.772 34.9346L 140.772 34.9346L 140.772 33.9346L 139.772 33.9346ZM 136.951 33.9346L 135.951 33.9346L 135.951 34.9346L 136.951 34.9346L 136.951 33.9346ZM 136.371 22.7417L 135.664 23.4488L 135.672 23.457L 135.681 23.4651L 136.371 22.7417ZM 133.444 22.6494L 133.955 23.5095L 133.965 23.5031L 133.444 22.6494ZM 132.284 23.5723L 131.514 22.9342L 131.284 23.2118L 131.284 23.5723L 132.284 23.5723ZM 132.284 33.9346L 132.284 34.9346L 133.284 34.9346L 133.284 33.9346L 132.284 33.9346ZM 129.463 33.9346L 128.463 33.9346L 128.463 34.9346L 129.463 34.9346L 129.463 33.9346ZM 129.463 20.0259L 129.463 19.0259L 128.463 19.0259L 128.463 20.0259L 129.463 20.0259ZM 132.284 20.0259L 133.284 20.0259L 133.284 19.0259L 132.284 19.0259L 132.284 20.0259ZM 132.284 21.5024L 131.284 21.5024L 131.284 23.9167L 132.991 22.2095L 132.284 21.5024ZM 133.879 20.2632L 133.389 19.3916L 133.383 19.3949L 133.879 20.2632ZM 138.665 20.7246L 138.019 21.4884L 138.025 21.4928L 138.665 20.7246ZM 138.772 23.5063L 138.772 33.9346L 140.772 33.9346L 140.772 23.5063L 138.772 23.5063ZM 139.772 32.9346L 136.951 32.9346L 136.951 34.9346L 139.772 34.9346L 139.772 32.9346ZM 137.951 33.9346L 137.951 24.2446L 135.951 24.2446L 135.951 33.9346L 137.951 33.9346ZM 137.951 24.2446C 137.951 23.3929 137.682 22.6107 137.062 22.0183L 135.681 23.4651C 135.834 23.611 135.951 23.8307 135.951 24.2446L 137.951 24.2446ZM 137.078 22.0346C 136.516 21.472 135.81 21.1748 135.013 21.1748L 135.013 23.1748C 135.271 23.1748 135.471 23.2556 135.664 23.4488L 137.078 22.0346ZM 135.013 21.1748C 134.339 21.1856 133.554 21.4203 132.923 21.7958L 133.965 23.5031C 134.371 23.2458 134.632 23.164 135.013 23.1748L 135.013 21.1748ZM 132.934 21.7894C 132.358 22.1338 131.839 22.5505 131.514 22.9342L 133.054 24.2103C 133.239 23.9788 133.493 23.7803 133.955 23.5095L 132.934 21.7894ZM 131.284 23.5723L 131.284 33.9346L 133.284 33.9346L 133.284 23.5723L 131.284 23.5723ZM 132.284 32.9346L 129.463 32.9346L 129.463 34.9346L 132.284 34.9346L 132.284 32.9346ZM 130.463 33.9346L 130.463 20.0259L 128.463 20.0259L 128.463 33.9346L 130.463 33.9346ZM 129.463 21.0259L 132.284 21.0259L 132.284 19.0259L 129.463 19.0259L 129.463 21.0259ZM 131.284 20.0259L 131.284 21.5024L 133.284 21.5024L 133.284 20.0259L 131.284 20.0259ZM 132.991 22.2095C 133.456 21.7425 133.882 21.4106 134.376 21.1314L 133.383 19.3949C 132.769 19.7485 132.132 20.2428 131.577 20.7953L 132.991 22.2095ZM 134.37 21.1348C 134.808 20.8774 135.215 20.7816 135.844 20.7886L 135.844 18.7886C 134.978 18.7956 134.076 19.0162 133.389 19.3916L 134.37 21.1348ZM 135.844 20.7886C 136.795 20.7886 137.493 21.0437 138.02 21.4883L 139.311 19.9609C 138.36 19.1575 137.178 18.7886 135.844 18.7886L 135.844 20.7886ZM 138.025 21.4928C 138.472 21.8659 138.772 22.4713 138.772 23.5063L 140.772 23.5063C 140.772 22.0629 140.334 20.8138 139.305 19.9564L 138.025 21.4928Z"/>
</defs>
</svg>
