<svg xmlns="http://www.w3.org/2000/svg" xmlns:xlink="http://www.w3.org/1999/xlink" version="1.1" x="0px" y="0px" viewBox="0 0 100 100" enable-background="new 0 0 100 100" xml:space="preserve"><rect x="5" y="5" fill="none" width="90" height="90"></rect><g><g><g><g><g><path fill="none" stroke="#000000" stroke-width="10" stroke-linecap="round" stroke-linejoin="round" stroke-miterlimit="10" d="       M53.152,64.854"></path></g></g></g></g></g><g><g><g><g><g><path fill="none" stroke="#000000" stroke-width="10" stroke-linecap="round" stroke-linejoin="round" stroke-miterlimit="10" d="       M53.152,52.744"></path></g></g></g></g></g><g><path d="M83.777,32.377l-27.83-12.39V5.728c0-0.223-0.111-0.43-0.299-0.551c-0.188-0.122-0.422-0.14-0.625-0.049l-12.776,5.688   c-0.237,0.106-0.391,0.341-0.391,0.601v9.547L16.222,32.377c-0.396,0.177-0.65,0.569-0.65,1.001v45.613   c0,0.434,0.254,0.826,0.65,1.003l33.331,14.84c0.143,0.063,0.295,0.096,0.447,0.096c0.15,0,0.305-0.032,0.445-0.096l33.332-14.84   c0.396-0.177,0.65-0.569,0.65-1.003V33.378C84.428,32.946,84.174,32.554,83.777,32.377z M43.172,11.844l11.46-5.103v14.285   l-11.46,5.102V11.844z M49.342,92.339L17.765,78.28V34.587l31.577,14.06V92.339z M50,47.499l-19.686-8.764l-11.49-5.117   l23.032-10.254v3.778c0,0.223,0.113,0.43,0.3,0.552c0.109,0.07,0.233,0.106,0.359,0.106c0.091,0,0.182-0.019,0.267-0.057   l12.597-5.608l25.797,11.484l-11.492,5.117L50,47.499z M82.234,78.28L50.658,92.339V48.647l31.576-14.06V78.28z"></path><path d="M19.998,77.114l1.203,0.534c0.058,0.025,0.119,0.039,0.178,0.039c0.168,0,0.328-0.098,0.401-0.26   c0.099-0.223-0.001-0.481-0.223-0.579l-0.941-0.42v-1.031c0-0.241-0.197-0.438-0.438-0.438c-0.242,0-0.438,0.197-0.438,0.438v1.315   C19.738,76.886,19.84,77.044,19.998,77.114z"></path><path d="M20.177,73.12c0.242,0,0.438-0.195,0.438-0.438v-2.715c0-0.242-0.197-0.438-0.438-0.438c-0.242,0-0.438,0.196-0.438,0.438   v2.715C19.738,72.925,19.935,73.12,20.177,73.12z"></path><path d="M20.177,67.689c0.242,0,0.438-0.195,0.438-0.438v-2.716c0-0.241-0.197-0.438-0.438-0.438c-0.242,0-0.438,0.197-0.438,0.438   v2.716C19.738,67.494,19.935,67.689,20.177,67.689z"></path><path d="M20.177,62.259c0.242,0,0.438-0.195,0.438-0.438v-2.716c0-0.241-0.197-0.438-0.438-0.438c-0.242,0-0.438,0.197-0.438,0.438   v2.716C19.738,62.063,19.935,62.259,20.177,62.259z"></path><path d="M20.177,45.967c0.242,0,0.438-0.197,0.438-0.438v-2.716c0-0.242-0.197-0.438-0.438-0.438c-0.242,0-0.438,0.196-0.438,0.438   v2.716C19.738,45.771,19.935,45.967,20.177,45.967z"></path><path d="M20.177,51.398c0.242,0,0.438-0.196,0.438-0.438v-2.716c0-0.243-0.197-0.438-0.438-0.438c-0.242,0-0.438,0.195-0.438,0.438   v2.716C19.738,51.202,19.935,51.398,20.177,51.398z"></path><path d="M20.177,56.828c0.242,0,0.438-0.195,0.438-0.438v-2.714c0-0.243-0.197-0.438-0.438-0.438c-0.242,0-0.438,0.195-0.438,0.438   v2.714C19.738,56.633,19.935,56.828,20.177,56.828z"></path><path d="M20.177,40.536c0.242,0,0.438-0.197,0.438-0.438v-0.641l0.585,0.26c0.221,0.099,0.481-0.001,0.579-0.223   c0.099-0.221-0.001-0.48-0.223-0.578l-1.202-0.536c-0.135-0.06-0.293-0.048-0.417,0.033c-0.125,0.082-0.2,0.219-0.2,0.368v1.316   C19.738,40.339,19.935,40.536,20.177,40.536z"></path><path d="M39.797,47.998l2.657,1.184c0.057,0.025,0.118,0.038,0.178,0.038c0.167,0,0.328-0.098,0.401-0.261   c0.098-0.221-0.001-0.481-0.223-0.579l-2.656-1.184c-0.222-0.098-0.481,0.002-0.579,0.223C39.477,47.64,39.576,47.9,39.797,47.998z   "></path><path d="M23.857,40.9l2.657,1.183c0.058,0.026,0.119,0.038,0.178,0.038c0.168,0,0.328-0.097,0.401-0.261   c0.099-0.221-0.001-0.479-0.223-0.579l-2.656-1.182c-0.222-0.099-0.48,0.001-0.579,0.222C23.536,40.543,23.636,40.802,23.857,40.9z   "></path><path d="M34.484,45.632l2.657,1.184c0.057,0.026,0.118,0.038,0.178,0.038c0.168,0,0.328-0.098,0.401-0.26   c0.099-0.221-0.001-0.481-0.223-0.579l-2.656-1.183c-0.222-0.099-0.48,0-0.579,0.221C34.164,45.273,34.263,45.534,34.484,45.632z"></path><path d="M29.17,43.266l2.657,1.183c0.057,0.025,0.118,0.038,0.178,0.038c0.168,0,0.328-0.097,0.401-0.26   c0.099-0.221-0.001-0.48-0.223-0.579l-2.656-1.182c-0.222-0.1-0.48,0-0.579,0.222C28.85,42.909,28.949,43.167,29.17,43.266z"></path><path d="M45.111,50.364l0.942,0.419v1.032c0,0.241,0.196,0.438,0.438,0.438s0.438-0.197,0.438-0.438v-1.316   c0-0.175-0.102-0.331-0.26-0.401l-1.202-0.537c-0.221-0.098-0.48,0.002-0.579,0.223C44.791,50.005,44.89,50.264,45.111,50.364z"></path><path d="M46.491,59.521c-0.242,0-0.438,0.196-0.438,0.438v2.715c0,0.243,0.196,0.438,0.438,0.438s0.438-0.195,0.438-0.438V59.96   C46.93,59.718,46.733,59.521,46.491,59.521z"></path><path d="M46.491,54.09c-0.242,0-0.438,0.197-0.438,0.439v2.715c0,0.243,0.196,0.438,0.438,0.438s0.438-0.195,0.438-0.438v-2.715   C46.93,54.287,46.733,54.09,46.491,54.09z"></path><path d="M46.491,81.244c-0.242,0-0.438,0.197-0.438,0.438v2.716c0,0.241,0.196,0.438,0.438,0.438s0.438-0.197,0.438-0.438v-2.716   C46.93,81.441,46.733,81.244,46.491,81.244z"></path><path d="M46.491,70.383c-0.242,0-0.438,0.197-0.438,0.438v2.716c0,0.243,0.196,0.438,0.438,0.438s0.438-0.195,0.438-0.438v-2.716   C46.93,70.58,46.733,70.383,46.491,70.383z"></path><path d="M46.491,64.952c-0.242,0-0.438,0.197-0.438,0.438v2.715c0,0.244,0.196,0.439,0.438,0.439s0.438-0.195,0.438-0.439v-2.715   C46.93,65.149,46.733,64.952,46.491,64.952z"></path><path d="M46.491,75.813c-0.242,0-0.438,0.197-0.438,0.438v2.716c0,0.241,0.196,0.438,0.438,0.438s0.438-0.197,0.438-0.438v-2.716   C46.93,76.011,46.733,75.813,46.491,75.813z"></path><path d="M45.111,88.294l1.202,0.536c0.058,0.026,0.118,0.038,0.179,0.038c0.083,0,0.167-0.023,0.239-0.07   c0.124-0.082,0.199-0.219,0.199-0.368v-1.315c0-0.243-0.196-0.438-0.438-0.438s-0.438,0.195-0.438,0.438v0.641l-0.585-0.261   c-0.222-0.1-0.48,0-0.579,0.221C44.791,87.938,44.89,88.196,45.111,88.294z"></path><path d="M37.497,83.944l-2.656-1.182c-0.222-0.1-0.48,0-0.579,0.223c-0.098,0.221,0.001,0.479,0.222,0.579l2.657,1.182   c0.057,0.026,0.118,0.038,0.178,0.038c0.168,0,0.328-0.096,0.401-0.261C37.818,84.303,37.719,84.044,37.497,83.944z"></path><path d="M32.184,81.578l-2.656-1.182c-0.222-0.1-0.48,0.002-0.579,0.223s0.001,0.479,0.222,0.579l2.657,1.182   c0.057,0.026,0.118,0.038,0.178,0.038c0.168,0,0.328-0.096,0.401-0.261C32.505,81.937,32.406,81.678,32.184,81.578z"></path><path d="M42.811,86.311l-2.656-1.183c-0.222-0.099-0.48,0-0.579,0.222c-0.098,0.223,0.001,0.481,0.222,0.579l2.657,1.184   c0.057,0.025,0.118,0.038,0.178,0.038c0.167,0,0.328-0.097,0.401-0.261C43.132,86.669,43.033,86.41,42.811,86.311z"></path><path d="M23.857,78.832l2.657,1.183c0.058,0.025,0.119,0.037,0.178,0.037c0.168,0,0.328-0.096,0.401-0.26   c0.099-0.222,0-0.479-0.223-0.577l-2.656-1.185c-0.222-0.099-0.481,0.002-0.579,0.223C23.536,78.475,23.636,78.733,23.857,78.832z"></path><path d="M53.508,52.254c0.242,0,0.439-0.197,0.439-0.438v-1.032l0.941-0.419c0.221-0.1,0.32-0.358,0.223-0.579   c-0.1-0.221-0.357-0.321-0.58-0.223l-1.201,0.537c-0.158,0.07-0.26,0.226-0.26,0.401v1.316   C53.07,52.057,53.266,52.254,53.508,52.254z"></path><path d="M62.682,46.853c0.059,0,0.119-0.012,0.178-0.038l2.656-1.184c0.221-0.098,0.32-0.358,0.223-0.58   c-0.1-0.221-0.357-0.32-0.58-0.221l-2.656,1.183c-0.221,0.098-0.32,0.358-0.223,0.579C62.354,46.755,62.514,46.853,62.682,46.853z"></path><path d="M67.994,44.487c0.059,0,0.119-0.012,0.178-0.038l2.656-1.183c0.223-0.099,0.322-0.357,0.223-0.579   c-0.098-0.222-0.357-0.321-0.578-0.222l-2.658,1.182c-0.221,0.099-0.32,0.358-0.221,0.579   C67.666,44.39,67.826,44.487,67.994,44.487z"></path><path d="M73.309,42.121c0.059,0,0.119-0.012,0.178-0.038l2.656-1.183c0.221-0.099,0.32-0.357,0.223-0.579   c-0.1-0.221-0.357-0.321-0.58-0.222l-2.656,1.182c-0.221,0.1-0.32,0.358-0.223,0.579C72.98,42.024,73.141,42.121,73.309,42.121z"></path><path d="M57.367,49.219c0.059,0,0.119-0.012,0.178-0.038l2.656-1.184c0.221-0.098,0.322-0.358,0.223-0.579   c-0.1-0.221-0.357-0.32-0.578-0.223l-2.658,1.184c-0.221,0.098-0.32,0.358-0.221,0.579C57.039,49.122,57.199,49.219,57.367,49.219z   "></path><path d="M78.799,39.717l0.586-0.26v0.641c0,0.242,0.195,0.438,0.438,0.438s0.439-0.197,0.439-0.438v-1.316   c0-0.149-0.076-0.287-0.199-0.368c-0.125-0.081-0.281-0.093-0.418-0.033l-1.203,0.536c-0.221,0.098-0.32,0.357-0.221,0.578   C78.318,39.716,78.578,39.816,78.799,39.717z"></path><path d="M79.822,53.237c-0.242,0-0.438,0.195-0.438,0.438v2.714c0,0.243,0.195,0.438,0.438,0.438s0.439-0.195,0.439-0.438v-2.714   C80.262,53.433,80.064,53.237,79.822,53.237z"></path><path d="M79.822,64.097c-0.242,0-0.438,0.197-0.438,0.438v2.716c0,0.243,0.195,0.438,0.438,0.438s0.439-0.195,0.439-0.438v-2.716   C80.262,64.294,80.064,64.097,79.822,64.097z"></path><path d="M79.822,58.666c-0.242,0-0.438,0.197-0.438,0.438v2.716c0,0.243,0.195,0.438,0.438,0.438s0.439-0.195,0.439-0.438v-2.716   C80.262,58.863,80.064,58.666,79.822,58.666z"></path><path d="M79.822,42.375c-0.242,0-0.438,0.196-0.438,0.438v2.716c0,0.242,0.195,0.438,0.438,0.438s0.439-0.197,0.439-0.438v-2.716   C80.262,42.571,80.064,42.375,79.822,42.375z"></path><path d="M79.822,47.806c-0.242,0-0.438,0.195-0.438,0.438v2.716c0,0.242,0.195,0.438,0.438,0.438s0.439-0.196,0.439-0.438v-2.716   C80.262,48.001,80.064,47.806,79.822,47.806z"></path><path d="M79.822,69.528c-0.242,0-0.438,0.196-0.438,0.438v2.715c0,0.243,0.195,0.438,0.438,0.438s0.439-0.195,0.439-0.438v-2.715   C80.262,69.725,80.064,69.528,79.822,69.528z"></path><path d="M78.621,77.688c0.059,0,0.121-0.014,0.178-0.039l1.203-0.534c0.158-0.07,0.26-0.229,0.26-0.401v-1.315   c0-0.241-0.197-0.438-0.439-0.438s-0.438,0.197-0.438,0.438v1.031l-0.943,0.42c-0.221,0.098-0.32,0.356-0.221,0.579   C78.293,77.59,78.453,77.688,78.621,77.688z"></path><path d="M57.367,87.15c0.059,0,0.119-0.013,0.178-0.038l2.656-1.184c0.223-0.098,0.322-0.356,0.223-0.578   c-0.1-0.223-0.357-0.321-0.578-0.223l-2.658,1.183c-0.221,0.1-0.32,0.358-0.221,0.579C57.039,87.054,57.199,87.15,57.367,87.15z"></path><path d="M70.473,80.396l-2.658,1.182c-0.221,0.1-0.32,0.358-0.221,0.579c0.072,0.165,0.232,0.261,0.4,0.261   c0.059,0,0.119-0.012,0.178-0.038l2.656-1.182c0.223-0.1,0.322-0.358,0.223-0.579C70.953,80.398,70.693,80.297,70.473,80.396z"></path><path d="M65.158,82.763l-2.656,1.182c-0.221,0.1-0.32,0.358-0.223,0.579c0.074,0.165,0.234,0.261,0.402,0.261   c0.059,0,0.119-0.012,0.178-0.038l2.656-1.182c0.221-0.1,0.32-0.358,0.223-0.579C65.639,82.763,65.381,82.663,65.158,82.763z"></path><path d="M75.785,78.03l-2.656,1.185c-0.221,0.098-0.32,0.355-0.223,0.578c0.074,0.163,0.234,0.259,0.402,0.259   c0.059,0,0.119-0.012,0.178-0.037l2.656-1.183c0.221-0.099,0.32-0.357,0.223-0.579C76.266,78.032,76.008,77.932,75.785,78.03z"></path><path d="M53.27,88.798c0.072,0.047,0.154,0.07,0.238,0.07c0.061,0,0.121-0.012,0.178-0.038l1.203-0.536   c0.221-0.098,0.32-0.356,0.223-0.579c-0.1-0.221-0.357-0.32-0.58-0.221l-0.584,0.261v-0.641c0-0.243-0.197-0.438-0.439-0.438   s-0.438,0.195-0.438,0.438v1.315C53.07,88.579,53.145,88.716,53.27,88.798z"></path><path d="M53.508,79.406c0.242,0,0.439-0.197,0.439-0.438v-2.716c0-0.241-0.197-0.438-0.439-0.438s-0.438,0.197-0.438,0.438v2.716   C53.07,79.209,53.266,79.406,53.508,79.406z"></path><path d="M53.508,84.837c0.242,0,0.439-0.197,0.439-0.438v-2.716c0-0.241-0.197-0.438-0.439-0.438s-0.438,0.197-0.438,0.438v2.716   C53.07,84.64,53.266,84.837,53.508,84.837z"></path><path d="M53.508,63.113c0.242,0,0.439-0.195,0.439-0.438V59.96c0-0.242-0.197-0.438-0.439-0.438s-0.438,0.196-0.438,0.438v2.715   C53.07,62.918,53.266,63.113,53.508,63.113z"></path><path d="M53.508,73.976c0.242,0,0.439-0.195,0.439-0.438v-2.716c0-0.241-0.197-0.438-0.439-0.438s-0.438,0.197-0.438,0.438v2.716   C53.07,73.78,53.266,73.976,53.508,73.976z"></path><path d="M53.508,57.683c0.242,0,0.439-0.195,0.439-0.438v-2.715c0-0.242-0.197-0.439-0.439-0.439s-0.438,0.197-0.438,0.439v2.715   C53.07,57.487,53.266,57.683,53.508,57.683z"></path><path d="M53.508,68.545c0.242,0,0.439-0.195,0.439-0.439v-2.715c0-0.241-0.197-0.438-0.439-0.438s-0.438,0.197-0.438,0.438v2.715   C53.07,68.35,53.266,68.545,53.508,68.545z"></path><path d="M26.897,32.666c-0.099-0.222-0.358-0.322-0.579-0.223l-1.202,0.536c-0.158,0.07-0.26,0.227-0.26,0.4   s0.102,0.331,0.26,0.401l1.202,0.535c0.058,0.026,0.118,0.039,0.178,0.039c0.167,0,0.328-0.098,0.401-0.26   c0.098-0.222-0.001-0.481-0.222-0.579l-0.302-0.135l0.302-0.134C26.896,33.146,26.995,32.887,26.897,32.666z"></path><path d="M31.274,30.236l-2.478,1.104c-0.222,0.098-0.321,0.357-0.223,0.579c0.073,0.163,0.233,0.26,0.401,0.26   c0.06,0,0.121-0.012,0.178-0.038l2.478-1.104c0.221-0.098,0.321-0.357,0.223-0.579C31.754,30.238,31.495,30.138,31.274,30.236z"></path><path d="M36.229,28.03l-2.478,1.104c-0.221,0.098-0.32,0.358-0.222,0.579c0.073,0.164,0.233,0.26,0.401,0.26   c0.06,0,0.12-0.012,0.178-0.038l2.479-1.104c0.221-0.099,0.32-0.357,0.222-0.579C36.71,28.031,36.451,27.931,36.229,28.03z"></path><path d="M38.887,27.766c0.059,0,0.12-0.012,0.178-0.038l2.477-1.104c0.222-0.099,0.321-0.357,0.223-0.579   c-0.098-0.221-0.358-0.321-0.579-0.222l-2.478,1.103c-0.221,0.099-0.32,0.358-0.222,0.579   C38.558,27.669,38.718,27.766,38.887,27.766z"></path><path d="M68.369,31.038l2.479,1.104c0.057,0.025,0.117,0.038,0.178,0.038c0.168,0,0.328-0.098,0.4-0.26   c0.098-0.222,0-0.481-0.223-0.579l-2.477-1.104c-0.223-0.099-0.48,0.001-0.58,0.222C68.049,30.68,68.148,30.939,68.369,31.038z"></path><path d="M53.5,24.418l2.479,1.104c0.059,0.026,0.119,0.038,0.178,0.038c0.168,0,0.328-0.097,0.402-0.26   c0.098-0.221-0.002-0.48-0.223-0.579l-2.479-1.103c-0.221-0.099-0.48,0-0.578,0.222C53.18,24.061,53.279,24.319,53.5,24.418z"></path><path d="M58.457,26.625l2.479,1.104c0.057,0.026,0.117,0.038,0.178,0.038c0.168,0,0.328-0.097,0.4-0.261   c0.1-0.221,0-0.48-0.223-0.579l-2.477-1.103c-0.223-0.099-0.482,0.001-0.58,0.222C58.137,26.267,58.236,26.526,58.457,26.625z"></path><path d="M66.248,29.133L63.77,28.03c-0.221-0.099-0.48,0.001-0.578,0.222c-0.1,0.222,0,0.48,0.223,0.579l2.477,1.104   c0.059,0.026,0.119,0.038,0.178,0.038c0.168,0,0.33-0.097,0.4-0.26C66.568,29.491,66.469,29.231,66.248,29.133z"></path><path d="M73.102,34.093c0.074,0.163,0.234,0.26,0.402,0.26c0.059,0,0.119-0.013,0.178-0.039l1.203-0.535   c0.156-0.07,0.258-0.228,0.258-0.401s-0.102-0.33-0.258-0.4l-1.203-0.536c-0.221-0.098-0.48,0.001-0.58,0.223   c-0.098,0.221,0.002,0.48,0.223,0.579l0.303,0.134l-0.303,0.135C73.104,33.611,73.004,33.871,73.102,34.093z"></path><path d="M55.979,41.237L53.5,42.34c-0.221,0.098-0.32,0.357-0.221,0.579c0.072,0.163,0.232,0.259,0.4,0.259   c0.061,0,0.119-0.012,0.178-0.039l2.479-1.103c0.221-0.098,0.32-0.357,0.223-0.579C56.459,41.237,56.199,41.138,55.979,41.237z"></path><path d="M60.936,39.03l-2.479,1.104c-0.221,0.098-0.32,0.357-0.223,0.579c0.072,0.163,0.232,0.26,0.402,0.26   c0.059,0,0.119-0.012,0.178-0.038l2.477-1.104c0.223-0.098,0.322-0.358,0.223-0.579C61.416,39.03,61.156,38.931,60.936,39.03z"></path><path d="M71.426,34.839c-0.098-0.222-0.357-0.321-0.578-0.222l-2.479,1.103c-0.221,0.098-0.32,0.357-0.223,0.579   c0.072,0.163,0.232,0.261,0.4,0.261c0.061,0,0.121-0.013,0.18-0.039l2.477-1.104C71.426,35.319,71.523,35.061,71.426,34.839z"></path><path d="M65.891,36.824l-2.477,1.103c-0.223,0.098-0.322,0.357-0.223,0.579c0.072,0.163,0.232,0.26,0.4,0.26   c0.059,0,0.119-0.012,0.178-0.038l2.479-1.104c0.221-0.099,0.32-0.358,0.221-0.579C66.371,36.824,66.113,36.724,65.891,36.824z"></path><path d="M51.023,43.443L50,43.898l-1.023-0.456c-0.223-0.099-0.48,0-0.579,0.222c-0.099,0.222,0.001,0.481,0.222,0.579l1.201,0.536   c0.059,0.025,0.119,0.038,0.18,0.038s0.121-0.013,0.178-0.038l1.201-0.536c0.223-0.098,0.322-0.357,0.223-0.579   C51.504,43.443,51.244,43.344,51.023,43.443z"></path><path d="M31.63,35.72l-2.478-1.103c-0.221-0.1-0.48,0-0.579,0.222s0.001,0.48,0.223,0.579l2.478,1.104   c0.058,0.025,0.118,0.039,0.178,0.039c0.168,0,0.328-0.098,0.401-0.261C31.952,36.078,31.852,35.818,31.63,35.72z"></path><path d="M41.542,40.134l-2.477-1.104c-0.222-0.099-0.481,0-0.579,0.222c-0.099,0.221,0.001,0.481,0.222,0.579l2.478,1.104   c0.058,0.025,0.119,0.038,0.178,0.038c0.168,0,0.328-0.097,0.401-0.26C41.863,40.491,41.764,40.231,41.542,40.134z"></path><path d="M36.587,37.927l-2.479-1.103c-0.221-0.1-0.48,0-0.579,0.222c-0.098,0.221,0.001,0.48,0.222,0.579l2.478,1.104   c0.058,0.025,0.119,0.038,0.178,0.038c0.168,0,0.328-0.097,0.401-0.26C36.907,38.284,36.808,38.024,36.587,37.927z"></path><path d="M46.498,42.34l-2.478-1.104c-0.221-0.099-0.48,0-0.579,0.221c-0.099,0.222,0,0.481,0.223,0.579l2.477,1.103   c0.058,0.027,0.12,0.039,0.178,0.039c0.168,0,0.329-0.097,0.401-0.259C46.818,42.697,46.72,42.438,46.498,42.34z"></path><path d="M61.92,30.366l-5.867-2.612c-0.113-0.051-0.244-0.05-0.357,0.001l-17.471,7.893c-0.158,0.072-0.259,0.228-0.258,0.401   c0,0.173,0.102,0.329,0.26,0.399l5.737,2.555c0.056,0.026,0.117,0.039,0.178,0.039c0.061,0,0.122-0.013,0.179-0.039l17.599-7.835   c0.158-0.07,0.26-0.228,0.26-0.4C62.18,30.594,62.078,30.437,61.92,30.366z M44.142,38.122l-4.665-2.076l16.4-7.41l4.785,2.131   L44.142,38.122z"></path><path d="M42.087,35.838c-0.079,0.035-0.129,0.113-0.128,0.201c0,0.085,0.05,0.165,0.13,0.199l1.964,0.875   c0.028,0.012,0.059,0.019,0.089,0.019c0.031,0,0.061-0.007,0.09-0.019l13.803-6.146c0.08-0.035,0.129-0.114,0.129-0.2   c0-0.087-0.049-0.166-0.129-0.201l-2.066-0.92c-0.059-0.025-0.123-0.025-0.18,0L42.087,35.838z"></path><path d="M53.313,17.878l-3.139-1.741l3.436-4.963c0.275-0.398,0.176-0.945-0.223-1.22c-0.398-0.276-0.945-0.176-1.221,0.222   l-3.533,5.105l-3.289-1.825c-0.424-0.235-0.958-0.083-1.193,0.341c-0.235,0.423-0.082,0.958,0.342,1.192l3.138,1.741l-3.433,4.963   c-0.276,0.398-0.177,0.945,0.222,1.221c0.153,0.105,0.327,0.156,0.499,0.156c0.278,0,0.552-0.132,0.722-0.378l3.533-5.106   l3.289,1.825c0.135,0.075,0.281,0.11,0.426,0.11c0.309,0,0.607-0.163,0.768-0.452C53.889,18.647,53.736,18.114,53.313,17.878z"></path></g></svg>