<svg xmlns="http://www.w3.org/2000/svg" xmlns:xlink="http://www.w3.org/1999/xlink" version="1.0" x="0px" y="0px" viewBox="0 0 100 100" enable-background="new 0 0 100 100" xml:space="preserve"><g><g><path d="M83.6330872,23.1840801c-0.3474045-0.2197208-0.7839661-0.2453995-1.1566849-0.0685196    c-5.0500793,2.4052792-10.956955,4.9857597-17.1597595,5.1485996c-3.6280785,0.09552-7.0235977-1.3669205-10.6018791-2.9161205    c-1.0166397-0.4400387-2.0296783-0.8783989-3.0451126-1.2779999c-5.3326874-2.0970001-10.9090881-2.1693592-16.3477249-2.1076794    v-4.6768799c0-0.6626396-0.5372429-1.2000008-1.2000008-1.2000008c-0.6626396,0-1.2000008,0.5373611-1.2000008,1.2000008v5.89044    v28.3845577v25.8070831H20.8188515c-0.6626453,0-1.2000008,0.5372391-1.2000008,1.1999969    c0,0.6626434,0.5373554,1.2000046,1.2000008,1.2000046h25.8128319c0.6627655,0,1.2000008-0.5373611,1.2000008-1.2000046    c0-0.6627579-0.5372353-1.1999969-1.2000008-1.1999969H35.3219261V52.7580795l0.2747993-0.0004807    c4.0143585-0.0135574,8.1633606-0.0257988,11.8278008,0.7359619c2.2839584,0.4745979,4.4483986,1.4266777,6.7400398,2.4345589    c2.9882393,1.3142395,6.0778847,2.6730003,9.5150375,2.9249992c0.5776825,0.0427208,1.1513977,0.0632401,1.7220001,0.0632401    c6.4517975,0,12.47052-2.6050797,18.1096802-5.3056793c0.4165192-0.1991997,0.6813583-0.6205177,0.6813583-1.0821609V24.1989193    C84.1926422,23.7870808,83.9816818,23.4037991,83.6330872,23.1840801z M81.7926407,51.7708397    c-5.6501923,2.6794815-11.667717,5.1486015-17.9372368,4.6892395c-3.0251999-0.222599-5.7932396-1.43964-8.7245979-2.7286797    c-2.3044815-1.0136414-4.6875572-2.0619583-7.2176399-2.5875587c-3.4213219-0.71064-7.1226006-0.7898407-10.7654419-0.7898407    c-0.5209198,0-1.0412407,0.0018005-1.5585594,0.0036011l-0.2672386,0.0005989V24.3606796    c5.2143593-0.0615597,10.5509987,0.0087605,15.4688377,1.9430408c0.9907188,0.3896389,1.9792862,0.8179188,2.9706001,1.2467995    c3.6598854,1.5849609,7.4461212,3.2250004,11.6186409,3.1125603c5.7175217-0.1499996,11.2400436-2.2031994,16.4126358-4.5774002    V51.7708397z"></path><path d="M41.5804062,84.5013199H25.870245c-0.6627598,0-1.2000008,0.5373611-1.2000008,1.1999969    c0,0.6626434,0.537241,1.2000046,1.2000008,1.2000046h15.7101612c0.6626396,0,1.1999969-0.5373611,1.1999969-1.2000046    C42.7804031,85.038681,42.2430458,84.5013199,41.5804062,84.5013199z"></path></g></g></svg>