<svg xmlns="http://www.w3.org/2000/svg" xmlns:xlink="http://www.w3.org/1999/xlink" version="1.0" x="0px" y="0px" viewBox="0 0 100 100" enable-background="new 0 0 100 100" xml:space="preserve"><g><g><circle cx="30.9434662" cy="36.3811798" r="1.1999707"></circle><circle cx="44.9738045" cy="44.5932007" r="1.2000512"></circle><circle cx="25.3737335" cy="50.1931801" r="1.1999909"></circle><path d="M87.0028458,27.4285202c-0.3491974-0.2197208-0.7863617-0.2461205-1.1566772-0.0686398    c-2.3461227,1.1174393-5.0847473,2.3150387-7.9124451,2.3894386c-1.5914383,0.0398407-3.1406403-0.6262798-4.7765961-1.3347588    c-0.4910431-0.2126408-0.9808807-0.4248009-1.4719238-0.6175194c-2.4338379-0.9582005-4.9319992-1.0660801-7.3804779-1.0528812    v-2.0584793c0-0.6626396-0.5366402-1.2000008-1.2000008-1.2000008c-0.6632385,0-1.2000008,0.5373611-1.2000008,1.2000008    v3.2707195v14.7081585v19.6365623H58.208725v-3.5073624c0.0140419-2.6133575-1.4800797-7.7192383-7.1215172-9.0586777    l-0.77808-2.4063606l2.6331596-1.7619591c0.2648392-0.177002,0.4487991-0.4518013,0.5109596-0.7640419    c0.0609741-0.3123589-0.0036011-0.6369591-0.180481-0.9011993c-1.8258018-2.7245979-6.6949196-7.0499992-12.0457191-3.9276009    c-1.0908012,0.6363602-1.8209991,1.5775223-2.2918816,2.6744423l-2.4554405-0.1507225l-0.4604378-2.5195198l3.0819588-1.5176392    c0.2859612-0.1406403,0.5038795-0.3890381,0.6070786-0.690239c0.1018982-0.3016815,0.080883-0.6310806-0.0609589-0.9169197    c-1.5339432-3.1113625-6.0351448-8.3274002-12.0703182-5.8026009c-4.8982811,2.0481606-4.4456253,10.2514801-4.0785599,13.4025612    c-0.7091999,0.1837196-1.4319611,0.4735184-2.1640816,0.900238c-4.6347599,2.7040787-3.0901184,10.6557617-2.3459988,13.5520821    c-4.8211203,2.6531982-7.1684399,6.1207199-7.1684399,10.5774002v10.8181152c0,0.6627655,0.5367594,1.2000046,1.1999998,1.2000046    c0.6633596,0,1.1999998-0.5372391,1.1999998-1.2000046v-0.23172V69.4830017c0-3.7735214,2.1363602-6.5989227,6.72192-8.8922424    c0.5237999-0.2624397,0.7827606-0.8648376,0.6105595-1.4255981c-0.8074799-2.6325607-2.2042789-9.8742027,0.9914398-11.7386398    c3.9256802-2.2880402,7.3335609,0.7957191,8.7854404,2.4749985l-2.5370407,1.6973991    c-0.4465199,0.2983208-0.6398392,0.8560829-0.4745998,1.3664398l1.3569603,4.1941223    c0.1371746,0.4259987,0.5004005,0.7394371,0.94104,0.8139572c0.9451199,0.160202,1.7334003,0.4456825,2.4162006,0.7990799    c0.377758,0.1956024,0.7239609,0.4105225,1.0315323,0.6471634c0.3614273,0.2781601,0.6753464,0.5787582,0.9506264,0.8943596    c1.8493195,2.1200371,1.8981743,4.8454819,1.8981743,5.0175552v5.3972473v4.7224731    c0,0.0792007,0.030468,0.1483231,0.0449867,0.2232056c0.1077614,0.5519943,0.570961,0.976799,1.155014,0.976799    c0.6632271,0,1.2000008-0.5373611,1.2000008-1.2000046v-4.7805557v-5.3326797    c0.0095978-1.8990021-0.7347755-5.0430031-3.138134-7.2830429c1.0319977-1.3743591,2.6026802-2.5754395,4.754158-3.6506386    c0.5237999-0.2618408,0.7815742-0.8642387,0.6105614-1.4244003c-0.75-2.4573593-2.052002-9.2120399,0.8975983-10.9329605    c3.5882416-2.09412,6.7172394,0.6715202,8.0965195,2.2441216l-2.3109589,1.5469208    c-0.4465179,0.2981987-0.6398392,0.855957-0.4745979,1.3663177l1.2725983,3.9357605    c0.1371613,0.4253998,0.5004005,0.7394409,0.9410553,0.813839c5.7668228,0.9774017,5.8465042,6.5930405,5.8477058,6.8332825    v11.4544792c0,0.0102005,0.0055199,0.0187225,0.0057602,0.028801c0.0161972,0.6485977,0.5410767,1.171196,1.1942368,1.171196    c0.6632423,0,1.2000008-0.5373535,1.2000008-1.1999969v-5.5406418h4.8959999h11.7574959    c0.6632233,0,1.1999969-0.5372391,1.1999969-1.1999969c0-0.6626396-0.5367737-1.2000008-1.1999969-1.2000008H64.3047256    V43.8632393c1.7193604-0.0050392,3.4692001,0.0186005,5.0028,0.3370819    c1.0217972,0.2127571,2.0225983,0.6527977,3.0819626,1.1185188c1.4707336,0.6469193,2.9918365,1.31604,4.7355576,1.4444389    c0.2812805,0.0205193,0.5613632,0.0304794,0.8402405,0.0304794c3.2261963,0,6.2778015-1.3231201,8.9144363-2.5863571    c0.417244-0.1998024,0.6820984-0.6205215,0.6820984-1.082283V28.4433594    C87.561821,28.0314007,87.3508453,27.6482391,87.0028458,27.4285202z M34.2238464,56.6836815    c-0.7311592-0.3882027-1.5471611-0.7126808-2.4819603-0.9309616l-0.8625603-2.6631584l2.8558807-1.9101601    c0.2648392-0.1768799,0.4489212-0.451683,0.509758-0.7640419c0.0621605-0.3122406-0.0022774-0.6368408-0.1792793-0.9011993    c-1.0049973-1.5004807-2.8865986-3.451561-5.2533588-4.5200386c-0.9092407-0.4105225-1.8898792-0.6830406-2.9222393-0.7538414    c-0.385561-3.3170395-0.4638004-9.6886787,2.6127586-10.97472c4.1929207-1.7560806,7.1636391,1.7554817,8.3823624,3.6111603    l-2.7386398,1.3488007c-0.4816818,0.2367592-0.7476006,0.7640381-0.6504021,1.292038l0.7922401,4.3359604    c0.0387611,0.2137222,0.1448402,0.3956413,0.2785187,0.5523605c0.2060432,0.2415619,0.4936943,0.4090805,0.8276405,0.4295998    l2.9222412,0.1794014c-0.3943214,2.8901978,0.2475586,6.0858002,0.6602402,7.7043571    C36.8978195,53.8698006,35.3324051,55.1916008,34.2238464,56.6836815z M85.1618195,42.3657608    c-2.506691,1.1707191-5.155098,2.2113609-7.8609772,2.0032806c-1.3323593-0.0978012-2.6014786-0.6555595-3.9457169-1.2468033    c-1.1260834-0.4957199-2.2909012-1.0078773-3.5601578-1.2715187c-1.6898422-0.3516006-3.562439-0.3890381-5.2862396-0.3890381    c-0.0680389,0-0.1359634,0-0.2040024,0v-12.318121c2.2863617-0.0094795,4.4543991,0.080759,6.5016022,0.8870392    c0.4664383,0.1833611,0.9316788,0.3843613,1.397995,0.5865612c1.8036041,0.7804794,3.6668396,1.5837593,5.7926407,1.5310783    c2.4996033-0.0656395,4.8996048-0.8554783,7.164856-1.8369598V42.3657608z"></path><path d="M69.0004425,68.9474411h-6.1124382c-0.6633568,0-1.1999969,0.5372391-1.1999969,1.1999969    c0,0.6626434,0.5366402,1.2000046,1.1999969,1.2000046h6.1124382c0.6633759,0,1.2000046-0.5373611,1.2000046-1.2000046    C70.2004471,69.4846802,69.6638184,68.9474411,69.0004425,68.9474411z"></path></g></g></svg>