<svg xmlns="http://www.w3.org/2000/svg" xmlns:xlink="http://www.w3.org/1999/xlink" version="1.1" x="0px" y="0px" viewBox="0 0 52.458 68.538" enable-background="new 0 0 52.458 68.538" xml:space="preserve"><g><path fill="none" d="M45.019,6.31v3.631h-4.104V6.31h-4.271v3.631h-4.104V6.31H28.27v3.631h-4.104V6.31h-4.271v3.631h-4.104V6.31   H11.52v3.631H7.417V6.31H2.523v59.703h47.412L49.931,6.31H45.019z M7.258,18.813h32.189v2.524H7.258V18.813z M7.258,34.087h28.824   v2.527H7.258V34.087z M40.445,41.728v2.525H7.26v-2.525H40.445z M38.394,59.524H7.259v-2.525h31.135V59.524z M43.232,51.888H7.258   v-2.523h35.974V51.888z M44.072,28.977H7.26v-2.526h36.812V28.977z"></path><path fill="#000000" d="M45.019,3.787V0h-4.104v3.787h-4.271V0h-4.104v3.787H28.27V0h-4.104v3.787h-4.271V0h-4.104v3.787H11.52V0   H7.417v3.787H0v64.751h52.458v-1.264V3.787H45.019z M2.523,66.013V6.31h4.894v3.631h4.103V6.31h4.272v3.631h4.103V6.31h4.272v3.631   h4.103V6.31h4.273v3.631h4.102V6.31h4.273v3.631h4.102V6.31h4.914l0.002,59.703H2.523z"></path><rect x="7.258" y="18.813" fill="#000000" width="32.189" height="2.524"></rect><rect x="7.26" y="26.451" fill="#000000" width="36.812" height="2.526"></rect><rect x="7.258" y="34.087" fill="#000000" width="28.824" height="2.527"></rect><rect x="7.26" y="41.728" fill="#000000" width="33.185" height="2.525"></rect><rect x="7.258" y="49.364" fill="#000000" width="35.974" height="2.523"></rect><rect x="7.259" y="56.999" fill="#000000" width="31.135" height="2.525"></rect></g></svg>