<svg xmlns="http://www.w3.org/2000/svg" data-name="Layer 1" viewBox="0 0 60 60" x="0px" y="0px"><title>icon-library-ext-5</title><path d="M12.11816,51.91895H7.47949a1.10154,1.10154,0,0,1-1.10059-1.09961V40.64746H8.93359a0.5,0.5,0,0,0,0-1H2.81836a0.5,0.5,0,0,0,0,1H5.37891V50.81934a2.10253,2.10253,0,0,0,2.10059,2.09961h4.63867A0.5,0.5,0,0,0,12.11816,51.91895Z"></path><path d="M45.97559,43.792a0.49971,0.49971,0,0,0-.5.5v6.52734A1.10154,1.10154,0,0,1,44.375,51.91895H36.73633a0.5,0.5,0,1,0,0,1H44.375a2.10253,2.10253,0,0,0,2.10059-2.09961V44.292A0.49971,0.49971,0,0,0,45.97559,43.792Z"></path><path d="M5.87891,8.38867a0.49971,0.49971,0,0,0,.5-0.5V2.6001A1.102,1.102,0,0,1,7.47949,1.5H44.375a1.102,1.102,0,0,1,1.10059,1.1001v12.5127a0.5,0.5,0,1,0,1,0V2.6001A2.10263,2.10263,0,0,0,44.375.5H7.47949A2.10263,2.10263,0,0,0,5.37891,2.6001V7.88867A0.49971,0.49971,0,0,0,5.87891,8.38867Z"></path><path d="M2.81836,13.772H5.37891v7.57227a0.5,0.5,0,0,0,1,0V13.772H8.93359a0.5,0.5,0,0,0,0-1H2.81836A0.5,0.5,0,0,0,2.81836,13.772Z"></path><path d="M2.81836,27.20947H5.37891v7.57275a0.5,0.5,0,0,0,1,0V27.20947H8.93359a0.5,0.5,0,1,0,0-1H2.81836A0.5,0.5,0,0,0,2.81836,27.20947Z"></path><path d="M57.03516,23.50537L51.51074,17.981a2.21088,2.21088,0,0,0-3.12207,0L18.0791,48.28955a2.21266,2.21266,0,0,0-.59375,1.08545L15.541,58.19971a1.06908,1.06908,0,0,0,1.27539,1.2749l8.82422-1.94434a2.20563,2.20563,0,0,0,1.08594-.59473L57.03516,26.62744A2.21266,2.21266,0,0,0,57.03516,23.50537Zm-0.707,2.415L26.01953,56.228a1.2062,1.2062,0,0,1-.59375.32568L16.60156,58.498,16.709,58.98633l-0.19141-.57227,1.94434-8.82373a1.21072,1.21072,0,0,1,.3252-0.59424L49.0957,18.688a1.20947,1.20947,0,0,1,1.708,0l5.52441,5.52441A1.21125,1.21125,0,0,1,56.32813,25.92041Z"></path><path d="M48.11133,26.19727L25.29688,49.01172a0.49995,0.49995,0,1,0,.707.707L48.81836,26.9043A0.49995,0.49995,0,0,0,48.11133,26.19727Z"></path></svg>