<svg xmlns="http://www.w3.org/2000/svg" xmlns:xlink="http://www.w3.org/1999/xlink" version="1.0" x="0px" y="0px" viewBox="0 0 100 100" enable-background="new 0 0 100 100" xml:space="preserve"><g><g><path d="M78.3000031,15.1000004H32.7000008c-0.6632538,0-1.2000008,0.5373592-1.2000008,1.1999989v4.4004002    c0,0.1417198,0.0355053,0.2733612,0.0806255,0.399601h-4.8806248c-0.6632557,0-1.2000008,0.5373592-1.2000008,1.1999989    v62.3999977c0,0.6626434,0.5367451,1.2000046,1.2000008,1.2000046h45.6000023    c0.6632233,0,1.1999969-0.5373611,1.1999969-1.2000046V79.879837c0.0345459,0.003006,0.0641861,0.0201645,0.0996017,0.0201645    h4.7004013c0.6632233,0,1.1999969-0.5373611,1.1999969-1.2000046V16.2999992    C79.5,15.6373596,78.9632263,15.1000004,78.3000031,15.1000004z M71.0999985,23.5v31.2000008H27.8999996V23.5H71.0999985z     M27.8999996,83.5V57.0999985h43.1999969V83.5H27.8999996z M77.0999985,77.5h-3.5003967    c-0.0354156,0-0.0650558,0.0171585-0.0996017,0.0201569V22.2999992c0-0.6626396-0.5367737-1.1999989-1.1999969-1.1999989    H33.8194656c0.0451202-0.1262398,0.0805359-0.2578812,0.0805359-0.399601V17.5h43.1999969V77.5z"></path><path d="M35.0999985,48.7000008h30c0.6632233,0,1.2000046-0.5373611,1.2000046-1.2000008V30.7000008    c0-0.6626415-0.5367813-1.2000008-1.2000046-1.2000008h-30c-0.6632538,0-1.1999969,0.5373592-1.1999969,1.2000008V47.5    C33.9000015,48.1626396,34.4367447,48.7000008,35.0999985,48.7000008z M36.2999992,31.8999996h27.6000023v14.3999996H36.2999992    V31.8999996z"></path><path d="M47.0999985,63.0999985h-12c-0.6632538,0-1.1999969,0.5373611-1.1999969,1.2000046    c0,0.6626358,0.5367432,1.1999969,1.1999969,1.1999969h12c0.6632271,0,1.2000008-0.5373611,1.2000008-1.1999969    C48.2999992,63.6373596,47.7632256,63.0999985,47.0999985,63.0999985z"></path><path d="M47.0999985,69.0999985h-12c-0.6632538,0-1.1999969,0.5373611-1.1999969,1.2000046    c0,0.6626358,0.5367432,1.1999969,1.1999969,1.1999969h12c0.6632271,0,1.2000008-0.5373611,1.2000008-1.1999969    C48.2999992,69.6373596,47.7632256,69.0999985,47.0999985,69.0999985z"></path><path d="M47.0999985,75.0999985h-12c-0.6632538,0-1.1999969,0.5373611-1.1999969,1.2000046    c0,0.6626358,0.5367432,1.1999969,1.1999969,1.1999969h12c0.6632271,0,1.2000008-0.5373611,1.2000008-1.1999969    C48.2999992,75.6373596,47.7632256,75.0999985,47.0999985,75.0999985z"></path><path d="M65.0999985,63.0999985h-12c-0.6632538,0-1.1999969,0.5373611-1.1999969,1.2000046    c0,0.6626358,0.5367432,1.1999969,1.1999969,1.1999969h12c0.6632233,0,1.2000046-0.5373611,1.2000046-1.1999969    C66.3000031,63.6373596,65.7632217,63.0999985,65.0999985,63.0999985z"></path><path d="M65.0999985,69.0999985h-12c-0.6632538,0-1.1999969,0.5373611-1.1999969,1.2000046    c0,0.6626358,0.5367432,1.1999969,1.1999969,1.1999969h12c0.6632233,0,1.2000046-0.5373611,1.2000046-1.1999969    C66.3000031,69.6373596,65.7632217,69.0999985,65.0999985,69.0999985z"></path><path d="M65.0999985,75.0999985h-12c-0.6632538,0-1.1999969,0.5373611-1.1999969,1.2000046    c0,0.6626358,0.5367432,1.1999969,1.1999969,1.1999969h12c0.6632233,0,1.2000046-0.5373611,1.2000046-1.1999969    C66.3000031,75.6373596,65.7632217,75.0999985,65.0999985,75.0999985z"></path></g></g></svg>