<svg xmlns="http://www.w3.org/2000/svg" xmlns:xlink="http://www.w3.org/1999/xlink" version="1.0" x="0px" y="0px" viewBox="0 0 100 100" enable-background="new 0 0 100 100" xml:space="preserve"><g><g><path d="M59.9103203,48.3014984c-0.2256012-0.6245995-0.9140396-0.9515991-1.5363617-0.72192L56.375,48.3004189    c-1.0722008-1.9095573-2.97192-3.2883606-5.2103996-3.6584396v-1.0573196c0-0.6632385-0.5373611-1.2000008-1.2000008-1.2000008    s-1.2000008,0.5367622-1.2000008,1.2000008v1.0573196c-2.2215576,0.3670807-4.1083183,1.7288399-5.1848373,3.6164398    l-1.6220398-0.5967598c-0.6222-0.2285995-1.3112411,0.0890427-1.5404434,0.7112389    c-0.2290764,0.6223221,0.0897598,1.312561,0.7119598,1.5410423l1.6190414,0.5956802    c-0.0849609,0.4461594-0.1336784,0.9049187-0.1336784,1.3754387c0,4.0524025,3.2971191,7.3500023,7.3499985,7.3500023    s7.3500023-3.2975998,7.3500023-7.3500023c0-0.4537201-0.0471611-0.8959198-0.1262436-1.327198l2.000042-0.7212029    C59.8119202,49.61166,60.1347198,48.9249001,59.9103203,48.3014984z M49.9645996,56.8350601    c-2.7292786,0-4.9500008-2.2207184-4.9500008-4.9500008c0-0.2207985,0.0370827-0.4314003,0.0651627-0.6445198    c0.0985184-0.7454414,0.3472786-1.4416809,0.7400398-2.0449181c0.6867599-1.0546799,1.7621994-1.8264008,3.0233994-2.1207619    c0.3616791-0.0845985,0.7342796-0.139801,1.1213989-0.139801s0.7597198,0.0552025,1.1213989,0.139801    c1.3550415,0.3163185,2.4836426,1.1918411,3.1578026,2.3679619c0.2782784,0.4856377,0.4836006,1.0145988,0.5840378,1.5849571    c0.0493202,0.2796021,0.0867615,0.5637627,0.0867615,0.8572807    C54.9146004,54.6143417,52.6938782,56.8350601,49.9645996,56.8350601z"></path><path d="M38.4678802,36.7807808c0.3036003,0,0.6076813-0.1148415,0.8408394-0.3445206l2.5534821-2.5089607    c0.4729195-0.4641609,0.4798775-1.2235184,0.0152397-1.6969185c-0.4652405-0.4734001-1.2252007-0.4792805-1.6968002-0.0140419    l-2.5534821,2.5089607c-0.4729195,0.4640388-0.4799995,1.2234001-0.0152397,1.6969185    C37.8468819,36.6612587,38.1573181,36.7807808,38.4678802,36.7807808z"></path><path d="M42.7182808,31.4053802c0.2349586,0.2390404,0.5455208,0.3585606,0.8560791,0.3585606    c0.3034782,0,0.6076813-0.1148415,0.8408394-0.3445206l1.225441-1.2040806    c0.9073181,0.6634808,1.9695587,1.1221199,3.1239586,1.3127995v1.7569218c0,0.6632385,0.5373611,1.2000008,1.2000008,1.2000008    s1.2000008-0.5367622,1.2000008-1.2000008v-1.7569218c1.1799583-0.1949997,2.2637978-0.6703186,3.1840782-1.3576794    l1.301281,1.2524395c0.2325592,0.2239208,0.5325623,0.3351612,0.8320808,0.3351612    c0.31464,0,0.6292801-0.1230011,0.8648415-0.3679199c0.4593582-0.4770012,0.4447174-1.2375603-0.0328827-1.6969204    l-1.2966003-1.2479992c0.8164825-1.1840401,1.2972031-2.6164818,1.2972031-4.1601601    c0-4.0524006-3.297123-7.3500004-7.3500023-7.3500004s-7.3499985,3.2975998-7.3499985,7.3500004    c0,1.570919,0.4997978,3.0250797,1.3426781,4.2211189l-1.2237587,1.20228    C42.2607193,30.1726208,42.2536392,30.9319801,42.7182808,31.4053802z M49.9645996,19.3350601    c2.7292786,0,4.9500008,2.2207203,4.9500008,4.9500008c0,0.9617996-0.2873993,1.8530388-0.7640419,2.6137199    c-0.3667183,0.5849991-0.84132,1.0949993-1.4115601,1.4825993c-0.4713593,0.3201599-1.0064392,0.5468407-1.574398,0.68964    c-0.3862801,0.0969601-0.7839622,0.1640396-1.2000008,0.1640396s-0.8137207-0.0670795-1.2000008-0.1640396    c-0.5427589-0.1365604-1.0536003-0.3523197-1.5088806-0.65172c-0.5909996-0.3886795-1.0870781-0.9019203-1.4657974-1.4998798    c-0.4844398-0.7648811-0.775322-1.6640396-0.775322-2.6343594C45.0145988,21.5557804,47.235321,19.3350601,49.9645996,19.3350601z    "></path><path d="M60.870079,36.4478989c0.2325592,0.2239227,0.5325623,0.3351593,0.8320808,0.3351593    c0.31464,0,0.6286812-0.1229973,0.8642387-0.3679199c0.4599609-0.4769974,0.4453201-1.2363586-0.03228-1.6969185    L59.9243584,32.20578c-0.4763985-0.4581604-1.2357597-0.4441204-1.6963196,0.0327606    c-0.4599571,0.4770012-0.4453201,1.2363586,0.03228,1.6969185L60.870079,36.4478989z"></path><path d="M64.7770386,40.2073784c-0.8164787,1.1839218-1.2971992,2.6164818-1.2971992,4.1601601    c0,0.4537201,0.0471611,0.8961601,0.1263618,1.3275604l-1.7798424,0.6411629    c-0.6235199,0.2237968-0.9469185,0.9116364-0.7225189,1.5351601c0.1763992,0.4886398,0.6375618,0.7933197,1.1290817,0.7933197    c0.134758,0,0.2725182-0.0222015,0.4066772-0.0715218l1.7798424-0.6409187    c1.259758,2.2435188,3.6591568,3.7652397,6.4104004,3.7652397c4.0528793,0,7.3499985-3.2977219,7.3499985-7.3500023    c0-4.0523987-3.2971191-7.3499985-7.3499985-7.3499985c-1.6440048,0-3.1584015,0.5491219-4.384079,1.4644814l-1.3012848-1.2524414    c-0.4769974-0.4581604-1.2363586-0.4441185-1.6969185,0.0328789c-0.4593582,0.4768829-0.4447212,1.237442,0.0328789,1.6968002    L64.7770386,40.2073784z M68.0554428,40.2712212c0.7919998-0.5380821,1.7468338-0.8536797,2.7743988-0.8536797    c2.7292786,0,4.9499969,2.2206001,4.9499969,4.9499969c0,2.7292824-2.2207184,4.9500008-4.9499969,4.9500008    c-1.7851181,0-3.3387604-0.9589195-4.2097244-2.3799591c-0.34272-0.5592003-0.5711975-1.1885986-0.6689987-1.8646812    c-0.0335999-0.2323189-0.0712814-0.4639206-0.0712814-0.7053604c0-0.9619179,0.2872849-1.8530388,0.7639236-2.6135979    C67.0103607,41.1688194,67.4850769,40.6588211,68.0554428,40.2712212z"></path><path d="M29.5241604,51.7175407c2.7334805,0,5.1183605-1.5031204,6.3845997-3.7229996l1.7769585,0.653759    c0.1364403,0.0503998,0.2764816,0.0739212,0.4142418,0.0739212c0.4886398,0,0.9473991-0.3000031,1.1261978-0.7851601    c0.2290802-0.6223221-0.0896378-1.312561-0.7119598-1.5410423l-1.7737198-0.6527977    c0.0849609-0.4461632,0.1336823-0.9052811,0.1336823-1.3756828c0-1.570797-0.4996796-3.0249596-1.3424416-4.2208786    l1.2241211-1.2026405c0.4728012-0.4640388,0.4798813-1.2234001,0.0152397-1.6968002    c-0.4652405-0.4735184-1.2257996-0.4794006-1.6969185-0.0141602L33.8484802,38.4375    c-1.2151184-0.8885994-2.7070808-1.41996-4.3243198-1.41996c-4.0528812,0-7.3500004,3.2975998-7.3500004,7.3499985    C22.17416,48.4198189,25.4712791,51.7175407,29.5241604,51.7175407z M32.2336388,40.2335396    c0.590641,0.3883209,1.0863609,0.9015617,1.464962,1.4990387c0.4845581,0.7648811,0.7755585,1.664402,0.7755585,2.6349602    c0,0.2524834-0.0379181,0.4947624-0.0745201,0.7374001c-0.1022377,0.6754799-0.334919,1.3045197-0.681839,1.8620415    c-0.874321,1.405201-2.4204006,2.3505592-4.1936398,2.3505592c-2.7292805,0-4.9500008-2.2207184-4.9500008-4.9500008    c0-2.7293968,2.2207203-4.9499969,4.9500008-4.9499969C30.5248394,39.4175415,31.4540005,39.7209015,32.2336388,40.2335396z"></path><path d="M70.8298416,55.0690193c-6.2331619,0-11.4582024,4.3477211-12.83424,10.1662788    c-2.3212814-1.4903984-5.0733604-2.3662796-8.031002-2.3662796c-2.804039,0-5.4203987,0.7918816-7.6637993,2.1430817    c-1.4560814-5.705761-6.6238785-9.9430809-12.7766399-9.9430809c-7.2784805,0-13.2000008,5.9215202-13.2000008,13.2000008    v6.944519h2.3999996v-6.944519c0-5.9554787,4.8451214-10.7999992,10.8000011-10.7999992    c5.3711987,0,9.8266811,3.9457207,10.6509609,9.0886803c-3.1354828,2.7370758-5.1290398,6.7513199-5.1290398,11.2304382v7.4262009    h2.3999977v-0.0002365v-7.4259644c0-3.0286789,1.0818024-5.80896,2.8780823-7.9765167    c0.6886787-0.8307648,1.4888382-1.5631256,2.3669968-2.1930008c2.0528412-1.4725189,4.5600014-2.3496017,7.2734413-2.3496017    c2.8965607,0,5.5592422,0.9979172,7.6826401,2.655838c0.902401,0.7045212,1.7022018,1.5292816,2.3825989,2.4507599    c1.5343208,2.0780411,2.4532814,4.6368027,2.4532814,7.4125214v7.4259644v0.0002365h2.3999977v-7.4262009    c0-4.2984009-1.8377991-8.166481-4.7561989-10.8913193c0.6777611-5.3083191,5.2138786-9.4277992,10.7029228-9.4277992    c5.9548798,0,10.7999954,4.8445206,10.7999954,10.7999992v6.944519h2.4000015v-6.944519    C84.0298386,60.9905396,78.1083221,55.0690193,70.8298416,55.0690193z"></path><path d="M49.9645996,41.0007019c0.6626396,0,1.2000008-0.5367622,1.2000008-1.2000008v-2.465641    c0-0.6632385-0.5373611-1.2000008-1.2000008-1.2000008s-1.2000008,0.5367622-1.2000008,1.2000008v2.465641    C48.7645988,40.4639397,49.30196,41.0007019,49.9645996,41.0007019z"></path></g></g></svg>