<svg xmlns="http://www.w3.org/2000/svg" xmlns:xlink="http://www.w3.org/1999/xlink" version="1.1" x="0px" y="0px" viewBox="0 0 120 120" style="enable-background:new 0 0 120 120;" xml:space="preserve"><g><path d="M96.1,50.2V39.7l-9.2-5.2l-9.2,5.2v10.5l9.2,5.2L96.1,50.2z M81.2,41.7l5.7-3.2l5.7,3.2v6.5l-5.7,3.2l-5.7-3.2V41.7z"></path><path d="M92.5,55.4l-5.6,3.2l-5.6-3.2l-8.5,4.8v16.1l14.1,8l14.1-8V60.3L92.5,55.4z M97.5,74.3l-10.6,6l-10.6-6V62.3l5-2.9l3.9,2.2   v8.3h3.5v-8.3l3.9-2.2l5,2.9V74.3z"></path><path d="M50.7,66.7v10.5l9.2,5.2l9.2-5.2V66.7l-9.2-5.2L50.7,66.7z M65.6,75.2l-5.7,3.2l-5.7-3.2v-6.4l5.7-3.2l5.7,3.2V75.2z"></path><path d="M59.9,85.6l-5.6-3.2l-8.5,4.8v16.1l14.1,8l14.1-8V87.3l-8.5-4.8L59.9,85.6z M70.5,89.3v12.1l-10.6,6l-10.6-6V89.3l5-2.9   l3.9,2.2v8.3h3.5v-8.3l3.9-2.2L70.5,89.3z"></path><path d="M42.3,50.2V39.7l-9.2-5.2l-9.2,5.2v10.5l9.2,5.2L42.3,50.2z M27.4,41.7l5.7-3.2l5.7,3.2v6.5l-5.7,3.2l-5.7-3.2V41.7z"></path><path d="M47.2,60.3l-8.5-4.8l-5.6,3.2l-5.6-3.2L19,60.3v16.1l14.1,8l14.1-8V60.3z M43.7,74.3l-10.6,6l-10.6-6V62.3l5-2.9l3.9,2.2   v8.3h3.5v-8.3l3.9-2.2l5,2.9V74.3z"></path><path d="M69.3,24.3V13.8l-9.2-5.2l-9.2,5.2v10.5l9.2,5.2L69.3,24.3z M54.4,15.9l5.7-3.2l5.7,3.2v6.5l-5.7,3.2l-5.7-3.2V15.9z"></path><path d="M74.2,50.5V34.4l-8.5-4.8l-5.6,3.2l-5.6-3.2L46,34.4v16.1l14.1,8L74.2,50.5z M49.5,36.4l5-2.9l3.9,2.2v8.3h3.5v-8.3   l3.9-2.2l5,2.9v12.1l-10.6,6l-10.6-6V36.4z"></path></g></svg>