<svg xmlns="http://www.w3.org/2000/svg" xmlns:xlink="http://www.w3.org/1999/xlink" version="1.0" x="0px" y="0px" viewBox="0 0 100 100" enable-background="new 0 0 100 100" xml:space="preserve"><g><g><path d="M67.4691162,21.2943192c-0.0008392-0.0005989-0.002037-0.0005989-0.0028763-0.0010796    C62.2168388,18.0922394,56.1769981,16.3999996,50,16.3999996c-18.5273991,0-33.5999985,15.0726013-33.5999985,33.5999985    S31.4726009,83.5999985,50,83.5999985S83.5999985,68.5273972,83.5999985,50    C83.5999985,38.1845589,77.569519,27.45368,67.4691162,21.2943192z M65.18396,22.7392406L51.2000008,45.7197189v-3.4580383    c0.6627579,0,1.2000008-0.5372391,1.2000008-1.2000008s-0.5372429-1.2000008-1.2000008-1.2000008v-5.811718    c0.6627579,0,1.2000008-0.5372429,1.2000008-1.2000008c0-0.6627617-0.5372429-1.2000008-1.2000008-1.2000008v-5.8115997    c0.6627579,0,1.2000008-0.5372391,1.2000008-1.2000008c0-0.6627598-0.5372429-1.1999989-1.2000008-1.1999989v-4.6155605    c2.2164001,0.0848408,4.4036407,0.4164009,6.5330391,0.960001c-0.2610016,0.2200794-0.4360809,0.5373592-0.4360809,0.9055195    c0,0.6627598,0.5372429,1.2000008,1.2000008,1.2000008c0.6627617,0,1.2000008-0.537241,1.2000008-1.2000008    c0-0.1275597-0.035759-0.2443199-0.0726013-0.3596401c1.9215622,0.6223202,3.7862396,1.4210396,5.5594788,2.4105606H65.18396z     M50,81.1999969c-17.2036781,0-31.2000008-13.996315-31.2000008-31.1999969c0-16.8017998,13.3506012-30.5437202,30-31.1772003V50    c0,0.5378418,0.3579597,1.0101585,0.8759995,1.1554794C49.7837601,51.18536,49.8922386,51.2000008,50,51.2000008    c0.0138016,0,0.0267601-0.0047989,0.0404396-0.0051613c0.0304794-0.0010796,0.0598793-0.0082779,0.0900002-0.0116386    c0.088562-0.0098419,0.1742401-0.0275993,0.2578812-0.0564003c0.0343208-0.011879,0.0664787-0.0250816,0.0995979-0.039959    c0.0786018-0.0352821,0.1514397-0.0790825,0.2210426-0.1306801c0.0268784-0.0198021,0.0551987-0.0370827,0.0805168-0.0592804    c0.0894012-0.0783615,0.17136-0.1674004,0.23592-0.2728806l16.2086411-26.6358013    C76.0023193,29.7936802,81.1999969,39.4297981,81.1999969,50C81.1999969,67.2036819,67.2036819,81.1999969,50,81.1999969z"></path><circle cx="56.0969582" cy="24.4439602" r="1.2"></circle><circle cx="53.5999985" cy="20.6883202" r="1.2"></circle><circle cx="60.9939194" cy="24.4439602" r="1.2"></circle><circle cx="56.0969582" cy="32.6556816" r="1.2"></circle><circle cx="53.5999985" cy="28.9000397" r="1.2"></circle><circle cx="58.4969597" cy="28.9000397" r="1.2"></circle><circle cx="53.5999985" cy="37.1116409" r="1.2"></circle></g></g></svg>