<svg xmlns="http://www.w3.org/2000/svg" xmlns:xlink="http://www.w3.org/1999/xlink" version="1.1" x="0px" y="0px" viewBox="0 0 100 100" enable-background="new 0 0 100 100" xml:space="preserve"><g><path d="M28.112,64.489c-0.276,0-0.5,0.224-0.5,0.5v11.5c0,0.276,0.224,0.5,0.5,0.5h7c0.276,0,0.5-0.224,0.5-0.5v-11.5   c0-0.276-0.224-0.5-0.5-0.5H28.112z M34.612,75.989h-6v-10.5h6V75.989z"></path><path d="M40.954,54.489c-0.276,0-0.5,0.224-0.5,0.5v21.5c0,0.276,0.224,0.5,0.5,0.5h7c0.276,0,0.5-0.224,0.5-0.5v-21.5   c0-0.276-0.224-0.5-0.5-0.5H40.954z M47.454,75.989h-6v-20.5h6V75.989z"></path><path d="M53.796,44.489c-0.276,0-0.5,0.224-0.5,0.5v31.5c0,0.276,0.224,0.5,0.5,0.5h7c0.276,0,0.5-0.224,0.5-0.5v-31.5   c0-0.276-0.224-0.5-0.5-0.5H53.796z M60.296,75.989h-6v-30.5h6V75.989z"></path><path d="M66.138,34.989v41.5c0,0.276,0.224,0.5,0.5,0.5h7c0.276,0,0.5-0.224,0.5-0.5v-41.5c0-0.276-0.224-0.5-0.5-0.5h-7   C66.361,34.489,66.138,34.713,66.138,34.989z M67.138,35.489h6v40.5h-6V35.489z"></path><path d="M17.093,80.357h65.813c0.276,0,0.5-0.224,0.5-0.5s-0.224-0.5-0.5-0.5H17.593V20.143c0-0.276-0.224-0.5-0.5-0.5   s-0.5,0.224-0.5,0.5v59.714C16.593,80.133,16.817,80.357,17.093,80.357z"></path><path d="M24.462,59.728c0.074,0,0.15-0.017,0.221-0.052c0.144-0.071,14.434-7.188,23.934-15.482   c7.925-6.919,14.53-17.993,16.567-21.597l0.362,2.333c0.039,0.247,0.251,0.423,0.494,0.423c0.025,0,0.051-0.002,0.077-0.006   c0.273-0.042,0.46-0.298,0.417-0.571l-0.557-3.589c-0.019-0.121-0.091-0.217-0.182-0.294c-0.044-0.06-0.097-0.114-0.168-0.152   c-0.088-0.047-0.182-0.055-0.274-0.048c-0.084-0.009-0.169-0.004-0.249,0.031l-3.444,1.484c-0.254,0.109-0.371,0.403-0.261,0.657   c0.109,0.253,0.402,0.37,0.657,0.261l2.221-0.957c-2.048,3.617-8.549,14.488-16.317,21.27c-9.401,8.207-23.578,15.268-23.72,15.338   c-0.248,0.123-0.349,0.423-0.227,0.67C24.101,59.625,24.278,59.728,24.462,59.728z"></path></g></svg>