<svg xmlns="http://www.w3.org/2000/svg" xmlns:xlink="http://www.w3.org/1999/xlink" version="1.1" x="0px" y="0px" viewBox="0 0 100 100" enable-background="new 0 0 100 100" xml:space="preserve"><path d="M99,22V11H1v11h2v48H1v9h32.388l-8.095,9.956l2.346,1.971L37.225,79H48v11h3V79h11.734l9.585,11.826l2.346-1.77L66.571,79  H99v-9h-2V22H99z M96,76H4v-3h92V76z M4,14h92v5H4V14z M94,70H6V22h88V70z M20.719,65h4.227h2.699H35V46h-7v-6H18v11h-7v14h7.021  H20.719z M28,49h4v13h-4V49z M21,43h4v19h-4V43z M18,62h-4v-8h4V62z M47.715,65h6.926l0,0H62V40H52v9h-7v7h-7v9h7.016H47.715z   M55,43h4v19h-4V43z M48,52h4v10h-4V52z M45,62h-4v-3h4V62z M74.709,65h4.227h2.699H89V38H79v17h-4v-7H65v17h7.011H74.709z M82,41h4  v21h-4V41z M75,58h4v4h-4V58z M72,62h-4V51h4V62z M35,31H12v-3h23V31z M21,36h-9v-3h9V36z"></path></svg>