<svg width="110" height="110" viewBox="0 0 110 110" version="1.1" xmlns="http://www.w3.org/2000/svg" xmlns:xlink="http://www.w3.org/1999/xlink" xmlns:figma="http://www.figma.com/figma/ns">
<title>funnel-icon</title>
<desc>Created using Figma</desc>
<g id="Canvas" transform="translate(-62 416)" figma:type="canvas">
<mask id="mask0_alpha" mask-type="alpha">
<path d="M 62 -416L 172 -416L 172 -306L 62 -306L 62 -416Z" fill="#FFFFFF"/>
</mask>
<g id="funnel-icon" style="mix-blend-mode:normal;" mask="url(#mask0_alpha)" figma:type="frame">
<g id="Vector" style="mix-blend-mode:normal;" figma:type="vector">
<use xlink:href="#path0_stroke" transform="translate(68 -410)" fill="#FFFFFF" style="mix-blend-mode:normal;"/>
</g>
</g>
</g>
<defs>
<path id="path0_stroke" d="M 41.2726 50.2233L 38.9548 52.128L 41.2726 50.2233ZM 57.458 89.7792L 56.0841 87.1123L 57.458 89.7792ZM 42.958 97.2489L 44.3318 99.9159L 42.958 97.2489ZM 58.2161 50.2272L 55.8644 48.3645L 58.2161 50.2272ZM -0.974243 3.53961L 38.9548 52.128L 43.5904 48.3186L 3.66131 -0.269805L -0.974243 3.53961ZM 38.5 50.8582L 38.5 96.36L 44.5 96.36L 44.5 50.8582L 38.5 50.8582ZM 44.3318 99.9159L 58.8318 92.4462L 56.0841 87.1123L 41.5841 94.582L 44.3318 99.9159ZM 61 88.8903L 61 50.8481L 55 50.8481L 55 88.8903L 61 88.8903ZM 60.5678 52.0899L 99.0678 3.48361L 94.3645 -0.241803L 55.8644 48.3645L 60.5678 52.0899ZM 95.9322 -3L 2.11613 -3L 2.11613 3L 95.9322 3L 95.9322 -3ZM 3.66131 -0.269805C 4.73383 1.03531 3.80539 3 2.11613 3L 2.11613 -3C -1.2624 -3 -3.11928 0.929386 -0.974243 3.53961L 3.66131 -0.269805ZM 38.9548 52.128C 38.6608 51.7701 38.5 51.3213 38.5 50.8582L 44.5 50.8582C 44.4557 50.1132 44.0292 48.9222 43.5904 48.3186L 38.9548 52.128ZM 38.5 96.36C 38.5 99.3546 41.6697 101.287 44.3318 99.9159L 41.5841 94.582C 42.9152 93.8963 44.5 94.8626 44.5 96.36L 38.5 96.36ZM 58.8318 92.4462C 60.1633 91.7603 61 90.388 61 88.8903L 55 88.8903C 55 88.1414 55.4184 87.4553 56.0841 87.1123L 58.8318 92.4462ZM 61 50.8481C 61 51.2989 60.8477 51.7365 60.5678 52.0899L 55.8644 48.3645C 55.4469 48.9592 55.042 50.1226 55 50.8481L 61 50.8481ZM 99.0678 3.48361C 101.145 0.861492 99.2772 -3 95.9322 -3L 95.9322 3C 94.2597 3 93.326 1.06925 94.3645 -0.241803L 99.0678 3.48361Z"/>
</defs>
</svg>
