<?xml version="1.0" encoding="UTF-8" standalone="no"?>
<svg width="27px" height="22px" viewBox="0 0 27 22" version="1.1" xmlns="http://www.w3.org/2000/svg" xmlns:xlink="http://www.w3.org/1999/xlink">
    <!-- Generator: Sketch 41.2 (35397) - http://www.bohemiancoding.com/sketch -->
    <title>ion-social-twitter - Ionicons</title>
    <desc>Created with Sketch.</desc>
    <defs></defs>
    <g id="R2" stroke="none" stroke-width="1" fill="none" fill-rule="evenodd">
        <g id="DD-speakers" transform="translate(-1179.000000, -1678.000000)" fill="#FFFFFF">
            <path d="M1206.04167,1680.63542 C1205.35416,1681.70487 1204.43751,1682.65972 1203.29167,1683.5 L1203.29167,1684.1875 C1203.29167,1688.19794 1201.84984,1691.83592 1198.96615,1695.10156 C1196.08245,1698.3672 1192.2535,1700 1187.47917,1700 C1184.4236,1700 1181.59724,1699.15973 1179,1697.47917 C1179.61111,1697.55556 1180.05035,1697.59375 1180.31771,1697.59375 C1182.87675,1697.59375 1185.16839,1696.79167 1187.19271,1695.1875 C1186.00867,1695.14931 1184.93924,1694.77691 1183.98438,1694.07031 C1183.02951,1693.36371 1182.38021,1692.4566 1182.03646,1691.34896 C1182.49479,1691.42535 1182.83854,1691.46354 1183.06771,1691.46354 C1183.44965,1691.46354 1183.94618,1691.38715 1184.55729,1691.23438 C1183.29687,1690.96701 1182.23698,1690.32726 1181.3776,1689.3151 C1180.51822,1688.30295 1180.08854,1687.12848 1180.08854,1685.79167 L1180.08854,1685.73438 C1180.92882,1686.19271 1181.76909,1686.42188 1182.60938,1686.42188 C1180.96701,1685.35243 1180.14583,1683.80557 1180.14583,1681.78125 C1180.14583,1680.82638 1180.39409,1679.90973 1180.89062,1679.03125 C1183.83161,1682.65974 1187.63192,1684.58854 1192.29167,1684.81771 C1192.21528,1684.55035 1192.17708,1684.13021 1192.17708,1683.55729 C1192.17708,1681.99131 1192.7118,1680.67362 1193.78125,1679.60417 C1194.8507,1678.53472 1196.16839,1678 1197.73438,1678 C1199.30036,1678 1200.63715,1678.59201 1201.74479,1679.77604 C1202.89063,1679.58507 1204.07465,1679.12674 1205.29688,1678.40104 C1204.91493,1679.73785 1204.09376,1680.76909 1202.83333,1681.49479 C1204.01737,1681.38021 1205.0868,1681.09375 1206.04167,1680.63542 Z" id="ion-social-twitter---Ionicons"></path>
        </g>
    </g>
</svg>