<?xml version="1.0" encoding="utf-8"?>
<!-- Generator: Adobe Illustrator 15.0.0, SVG Export Plug-In . SVG Version: 6.00 Build 0)  -->
<!DOCTYPE svg PUBLIC "-//W3C//DTD SVG 1.1//EN" "http://www.w3.org/Graphics/SVG/1.1/DTD/svg11.dtd">
<svg version="1.1" id="Layer_1" xmlns="http://www.w3.org/2000/svg" xmlns:xlink="http://www.w3.org/1999/xlink" x="0px" y="0px"
	 width="28.374px" height="29.688px" viewBox="0 0 28.374 29.688" enable-background="new 0 0 28.374 29.688" xml:space="preserve">
<path fill="#DC9F27" d="M0,14.883c0,2.048,0.319,3.977,0.956,5.788c0.637,1.811,1.552,3.386,2.747,4.725s2.667,2.39,4.418,3.15
	s3.742,1.142,5.971,1.142c2.07,0,3.981-0.381,5.732-1.142s3.264-1.798,4.538-3.111c1.274-1.312,2.269-2.874,2.985-4.685
	c0.717-1.812,1.075-3.767,1.075-5.867c0-2.099-0.358-4.055-1.075-5.867c-0.717-1.811-1.711-3.386-2.985-4.724
	c-1.273-1.34-2.786-2.389-4.538-3.15C18.073,0.382,16.162,0,14.092,0c-2.229,0-4.22,0.394-5.971,1.181S4.896,3.032,3.702,4.37
	c-1.194,1.339-2.11,2.914-2.747,4.726C0.319,10.906,0,12.836,0,14.883z"/>
<polygon fill="#fff" points="8.062,5.343 24.519,14.844 8.062,24.345 "/>
</svg>
