<?xml version="1.0" encoding="UTF-8" standalone="no"?>
<svg width="24px" height="24px" viewBox="0 0 24 24" version="1.1" xmlns="http://www.w3.org/2000/svg" xmlns:xlink="http://www.w3.org/1999/xlink">
    <!-- Generator: Sketch 41.2 (35397) - http://www.bohemiancoding.com/sketch -->
    <title>ion-ios-search-strong - Ionicons</title>
    <desc>Created with Sketch.</desc>
    <defs></defs>
    <g id="R2" stroke="none" stroke-width="1" fill="none" fill-rule="evenodd">
        <g id="DD-speakerprofile" transform="translate(-1174.000000, -52.000000)" fill="#6a6a6a">
            <g id="Group">
                <g id="header">
                    <path d="M1191.5,66.625 L1191.25,67.0625 L1198,73.875 L1195.875,76 L1189.125,69.1875 L1188.6875,69.5 C1187.02083,70.5416719 1185.29168,71.0625 1183.5,71.0625 C1180.87499,71.0625 1178.63543,70.1250094 1176.78125,68.25 C1174.92707,66.3749906 1174,64.1250131 1174,61.5 C1174,58.8749869 1174.92707,56.6354259 1176.78125,54.78125 C1178.63543,52.9270741 1180.87499,52 1183.5,52 C1186.12501,52 1188.36457,52.9270741 1190.21875,54.78125 C1192.07293,56.6354259 1193,58.8749869 1193,61.5 C1193,63.3333425 1192.5,65.0416587 1191.5,66.625 Z M1188.75934,56.1875 C1187.30705,54.7291594 1185.54358,54 1183.46888,54 C1181.39418,54 1179.63071,54.7291594 1178.17842,56.1875 C1176.72613,57.6458406 1176,59.4166563 1176,61.5 C1176,63.5833437 1176.72613,65.3541594 1178.17842,66.8125 C1179.63071,68.2708406 1181.39418,69 1183.46888,69 C1185.54358,69 1187.30705,68.2708406 1188.75934,66.8125 C1190.25312,65.3124925 1191,63.5416769 1191,61.5 C1191,59.4583231 1190.25312,57.6875075 1188.75934,56.1875 Z" id="ion-ios-search-strong---Ionicons"></path>
                </g>
            </g>
        </g>
    </g>
</svg>