<svg id="Layer_1" data-name="Layer 1" xmlns="http://www.w3.org/2000/svg" xmlns:xlink="http://www.w3.org/1999/xlink" viewBox="0 0 40 39.11"><defs><style>.cls-1{fill:#fff;}.cls-2{mask:url(#mask);}.cls-3{fill:#cd6700;}</style><mask id="mask" x="-2.5" y="-2.48" width="45" height="44.06" maskUnits="userSpaceOnUse"><g transform="translate(-2.5 -2.48)"><g id="mask0_alpha" data-name="mask0 alpha"><path class="cls-1" d="M0,0H45V44.06H0Z"/></g></g></mask></defs><title>play-icon-orange1</title><g id="Canvas"><g class="cls-2"><g id="small-play-icon"><g id="Component"><g id="Ellipse"><g id="Vector"><path id="path0_fill" data-name="path0 fill" class="cls-3" d="M42.5,22a19.78,19.78,0,0,1-20,19.55A19.78,19.78,0,0,1,2.5,22a19.78,19.78,0,0,1,20-19.55A19.78,19.78,0,0,1,42.5,22Z" transform="translate(-2.5 -2.48)"/></g></g><g id="Polygon"><g id="Vector-2" data-name="Vector"><path id="path1_fill" data-name="path1 fill" class="cls-1" d="M33.28,20.79a1.43,1.43,0,0,1,0,2.48L18.09,31.85A1.4,1.4,0,0,1,16,30.61V13.45a1.4,1.4,0,0,1,2.09-1.24Z" transform="translate(-2.5 -2.48)"/></g></g></g></g></g></g></svg>