<svg xmlns="http://www.w3.org/2000/svg" xmlns:xlink="http://www.w3.org/1999/xlink" version="1.1" x="0px" y="0px" viewBox="0 0 48 60" style="enable-background:new 0 0 48 48;" xml:space="preserve"><title>Png 48px Solid - 70 Basic Icons</title><g fill="#98c93b"><path d="M24,2C11.8,2,2,11.8,2,24s9.8,22,22,22s22-9.8,22-22S36.2,2,24,2z M33.1,25.7l-12,8c-0.9,0.6-2.2,0.4-2.8-0.6   C18.1,32.8,18,32.4,18,32V16c0-1.1,0.9-2,2-2c0.4,0,0.8,0.1,1.1,0.3l12,8c0.9,0.6,1.2,1.9,0.5,2.8C33.5,25.3,33.3,25.5,33.1,25.7z"/></g></svg>
