<svg xmlns:dc="http://purl.org/dc/elements/1.1/" xmlns:cc="http://creativecommons.org/ns#" xmlns:rdf="http://www.w3.org/1999/02/22-rdf-syntax-ns#" xmlns:svg="http://www.w3.org/2000/svg" xmlns="http://www.w3.org/2000/svg" xmlns:sodipodi="http://sodipodi.sourceforge.net/DTD/sodipodi-0.dtd" xmlns:inkscape="http://www.inkscape.org/namespaces/inkscape" version="1.1" x="0px" y="0px" viewBox="0 0 100 100"><g transform="translate(0,-952.36218)"><path d="m 9,1006.3623 0,-40.00005 c 5e-5,-0.5236 0.47642,-1 1,-1 l 80,0 c 0.52358,0 0.99995,0.4764 1,1 l 0,40.00005 c -5e-5,0.5235 -0.47642,0.9999 -1,1 l -13.95727,0 c -0.52831,0.01 -1.01424,-0.4717 -1.01424,-1 0,-0.5284 0.48593,-1.0075 1.01424,-1 l 12.95727,0 0,-38.00005 -78,0 0,38.00005 12.95727,0 c 0.52831,-0.01 1.01424,0.4716 1.01424,1 0,0.5283 -0.48593,1.0074 -1.01424,1 l -13.95727,0 c -0.66232,-0.021 -0.99246,-0.5332 -1,-1 z" style="text-indent:0;text-transform:none;direction:ltr;block-progression:tb;baseline-shift:baseline;color:#000000;enable-background:accumulate;" fill="#000000" fill-opacity="1" fill-rule="nonzero" stroke="none" marker="none" visibility="visible" display="inline" overflow="visible"></path><path style="text-indent:0;text-transform:none;direction:ltr;block-progression:tb;baseline-shift:baseline;color:#000000;enable-background:accumulate;" d="m 49.31029,1039.113 -17,-16.0002 c -0.4042,-0.3873 -0.4071,-1.0492 -0.047,-1.4221 0.3659,-0.379 1.0376,-0.4068 1.4221,-0.047 l 15.3125,14.4064 0,-55.68768 c 0,-0.5524 0.4477,-1.0001 1,-1.0001 0.5523,0 1,0.4477 1,1.0001 l 0,55.68768 15.3125,-14.4064 c 0.3845,-0.3601 1.0621,-0.3379 1.4221,0.047 0.36,0.3846 0.3689,1.0035 -0.047,1.4221 l -17,16.0002 c -0.468,0.3803 -1.0416,0.2803 -1.3752,0 z" fill="#000000" fill-opacity="1" fill-rule="nonzero" stroke="none" marker="none" visibility="visible" display="inline" overflow="visible"></path></g></svg>