<svg xmlns="http://www.w3.org/2000/svg" data-name="Layer 1" viewBox="0 0 100 100" x="0px" y="0px"><title>02_contact collection</title><path d="M83.65,64.94a9.31,9.31,0,0,0-5.15-8.32V33a2,2,0,0,0-2-2h-53a2,2,0,0,0-2,2V67a2,2,0,0,0,2,2H66a9.32,9.32,0,0,0,8.37,5.25h0.44a9.15,9.15,0,0,0,5.46-2.11,0.53,0.53,0,0,0,.18-0.3,0.48,0.48,0,0,0-.55-0.51,0.65,0.65,0,0,0-.25.13,8.31,8.31,0,0,1-4.86,1.86H74.34A8.39,8.39,0,0,1,67,69a7.58,7.58,0,0,1-.47-1,8.38,8.38,0,0,1,7.8-11.44,8.32,8.32,0,0,1,3.16.62,7.72,7.72,0,0,1,1,.49,8.38,8.38,0,0,1,4.22,7.27,8.25,8.25,0,0,1-.14,1.52,7.55,7.55,0,0,1-.36,1.34l-0.1.24a0.89,0.89,0,0,1-.09.16,1.67,1.67,0,0,1-1.43.8,1.69,1.69,0,0,1-1.7-1.69A1.5,1.5,0,0,1,79,66.79l0-.12a4.91,4.91,0,0,0,.26-1.12,4.1,4.1,0,0,0,0-.61,4.94,4.94,0,0,0-.84-2.76,4.56,4.56,0,0,0-1-1.1,5,5,0,0,0-3.16-1.14,5,5,0,0,0-5,5A4.85,4.85,0,0,0,70.41,68a4.12,4.12,0,0,0,1,1,4.85,4.85,0,0,0,2.89.94,5,5,0,0,0,3.79-1.74,2.62,2.62,0,0,0,2.47,1.74,2.59,2.59,0,0,0,1.25-.33,1.57,1.57,0,0,0,.24-0.15,1.63,1.63,0,0,0,.26-0.2l0.16-.15a3.25,3.25,0,0,0,.23-0.29,2.33,2.33,0,0,0,.15-0.24L83,68.36c0-.08,0-0.14.07-0.18a1.66,1.66,0,0,0,.07-0.2A9.06,9.06,0,0,0,83.65,64.94ZM77.5,56.19a9.22,9.22,0,0,0-3.16-.56A9.33,9.33,0,0,0,65,64.94,9.15,9.15,0,0,0,65.55,68H23.5a1,1,0,0,1-1-1V38.82l25.62,18.7a2.49,2.49,0,0,0,2.94,0L77.5,38.22v18ZM77.5,37l-27,19.73a1.48,1.48,0,0,1-1.76,0L22.5,37.57V33a1,1,0,0,1,1-1h53a1,1,0,0,1,1,1v4ZM71.68,68a4.05,4.05,0,1,1,6.72-3.06,3.87,3.87,0,0,1-.29,1.51A4.05,4.05,0,0,1,71.68,68Z"></path></svg>