<svg xmlns="http://www.w3.org/2000/svg" data-name="Layer 1" viewBox="0 0 100 100" x="0px" y="0px"><title>02_contact collection</title><path d="M76.5,37h-8V23a2,2,0,0,0-2-2h-33a2,2,0,0,0-2,2V37h-8a2,2,0,0,0-2,2V77a2,2,0,0,0,2,2h53a2,2,0,0,0,2-2V39A2,2,0,0,0,76.5,37Zm-44-14a1,1,0,0,1,1-1h33a1,1,0,0,1,1,1V37h-35V23Zm45,54a1,1,0,0,1-1,1h-53a1,1,0,0,1-1-1V39a1,1,0,0,1,1-1h53a1,1,0,0,1,1,1V77Z"></path><path d="M41.5,42h-13a2,2,0,0,0-2,2V72a2,2,0,0,0,2,2h13a2,2,0,0,0,2-2V44A2,2,0,0,0,41.5,42Zm1,30a1,1,0,0,1-1,1h-13a1,1,0,0,1-1-1V44a1,1,0,0,1,1-1h13a1,1,0,0,1,1,1V72Z"></path><path d="M71.5,42h-23a2,2,0,0,0-2,2v8a2,2,0,0,0,2,2h23a2,2,0,0,0,2-2V44A2,2,0,0,0,71.5,42Zm1,10a1,1,0,0,1-1,1h-23a1,1,0,0,1-1-1V44a1,1,0,0,1,1-1h23a1,1,0,0,1,1,1v8Z"></path><path d="M52.5,57.5h-5a0.5,0.5,0,0,0,0,1h5A0.5,0.5,0,0,0,52.5,57.5Z"></path><path d="M62.5,57.5h-5a0.5,0.5,0,0,0,0,1h5A0.5,0.5,0,0,0,62.5,57.5Z"></path><path d="M62.5,27.5h-25a0.5,0.5,0,0,0,0,1h25A0.5,0.5,0,0,0,62.5,27.5Z"></path><path d="M62.5,32.5h-25a0.5,0.5,0,0,0,0,1h25A0.5,0.5,0,0,0,62.5,32.5Z"></path><path d="M72.5,57.5h-5a0.5,0.5,0,0,0,0,1h5A0.5,0.5,0,0,0,72.5,57.5Z"></path><path d="M52.5,62.5h-5a0.5,0.5,0,0,0,0,1h5A0.5,0.5,0,0,0,52.5,62.5Z"></path><path d="M62.5,62.5h-5a0.5,0.5,0,0,0,0,1h5A0.5,0.5,0,0,0,62.5,62.5Z"></path><path d="M72.5,62.5h-5a0.5,0.5,0,0,0,0,1h5A0.5,0.5,0,0,0,72.5,62.5Z"></path><path d="M52.5,67.5h-5a0.5,0.5,0,0,0,0,1h5A0.5,0.5,0,0,0,52.5,67.5Z"></path><path d="M62.5,67.5h-5a0.5,0.5,0,0,0,0,1h5A0.5,0.5,0,0,0,62.5,67.5Z"></path><path d="M72.5,67.5h-5a0.5,0.5,0,0,0,0,1h5A0.5,0.5,0,0,0,72.5,67.5Z"></path></svg>