<svg xmlns="http://www.w3.org/2000/svg" xmlns:xlink="http://www.w3.org/1999/xlink" version="1.0" x="0px" y="0px" viewBox="0 0 100 100" enable-background="new 0 0 100 100" xml:space="preserve"><path fill="none" stroke="#000000" stroke-width="2" stroke-linecap="round" stroke-linejoin="round" stroke-miterlimit="10" d="  M17.5,79.998h65c4.141,0,7.5-3.359,7.5-7.5V20H25v52.498l0,0C25,76.639,21.641,79.998,17.5,79.998z"></path><path fill="none" stroke="#000000" stroke-width="2" stroke-linecap="round" stroke-linejoin="round" stroke-miterlimit="10" d="  M25,72.5c0,4.141-3.359,7.5-7.5,7.5v-0.002c-4.141,0-7.5-3.359-7.5-7.5V32.5h15v39.999V72.5z"></path><rect x="62.498" y="27.5" fill="none" stroke="#000000" stroke-width="2" stroke-linecap="round" stroke-linejoin="round" stroke-miterlimit="10" width="20.002" height="29.999"></rect><path fill="none" stroke="#000000" stroke-width="2" stroke-linecap="round" stroke-linejoin="round" stroke-miterlimit="10" d="  M32.5,27.5h22.5H32.5z"></path><path fill="none" stroke="#000000" stroke-width="2" stroke-linecap="round" stroke-linejoin="round" stroke-miterlimit="10" d="  M32.5,34.999h22.5H32.5z"></path><path fill="none" stroke="#000000" stroke-width="2" stroke-linecap="round" stroke-linejoin="round" stroke-miterlimit="10" d="  M32.5,42.499h22.5H32.5z"></path><path fill="none" stroke="#000000" stroke-width="2" stroke-linecap="round" stroke-linejoin="round" stroke-miterlimit="10" d="  M32.5,50h22.5H32.5z"></path><path fill="none" stroke="#000000" stroke-width="2" stroke-linecap="round" stroke-linejoin="round" stroke-miterlimit="10" d="  M32.5,57.498h22.5H32.5z"></path><path fill="none" stroke="#000000" stroke-width="2" stroke-linecap="round" stroke-linejoin="round" stroke-miterlimit="10" d="  M32.5,64.998h50H32.5z"></path><path fill="none" stroke="#000000" stroke-width="2" stroke-linecap="round" stroke-linejoin="round" stroke-miterlimit="10" d="  M32.5,72.498h50H32.5z"></path></svg>