<svg xmlns="http://www.w3.org/2000/svg" xmlns:xlink="http://www.w3.org/1999/xlink" version="1.2" baseProfile="tiny" x="0px" y="0px" viewBox="0 0 100 100" xml:space="preserve"><g><path fill="white" d="M76.768,5.732c-0.976-0.977-2.56-0.977-3.535,0L65,13.965L86.035,35l8.232-8.232c0.977-0.977,0.977-2.559,0-3.535   L76.768,5.732z"></path><path fill="white" d="M5.732,94.268C6.22,94.756,6.86,95,7.5,95s1.28-0.244,1.768-0.732l1.985-1.985l20.45-4.545L12.262,68.297l-4.544,20.45   l-1.985,1.985C4.756,91.709,4.756,93.291,5.732,94.268z"></path><rect fill="white" x="33.876" y="18.394" transform="matrix(0.7071 0.7071 -0.7071 0.7071 50.5178 -19.4607)" width="29.748" height="65.711"></rect></g></svg>