<svg xmlns="http://www.w3.org/2000/svg" xmlns:xlink="http://www.w3.org/1999/xlink" version="1.1" x="0px" y="0px" viewBox="0 0 100 100" enable-background="new 0 0 100 100" xml:space="preserve"><path fill="white" d="M28.5,10.5c-3.859,0-7,3.141-7,7s3.141,7,7,7s7-3.141,7-7S32.359,10.5,28.5,10.5z M50.5,10.5c-3.859,0-7,3.141-7,7  s3.141,7,7,7s7-3.141,7-7S54.359,10.5,50.5,10.5z M72.5,24.5c3.859,0,7-3.141,7-7s-3.141-7-7-7s-7,3.141-7,7S68.641,24.5,72.5,24.5z   M28.5,32.5c-3.859,0-7,3.141-7,7s3.141,7,7,7s7-3.141,7-7S32.359,32.5,28.5,32.5z M50.5,32.5c-3.859,0-7,3.141-7,7s3.141,7,7,7  s7-3.141,7-7S54.359,32.5,50.5,32.5z M72.5,32.5c-3.859,0-7,3.141-7,7s3.141,7,7,7s7-3.141,7-7S76.359,32.5,72.5,32.5z M28.5,54.5  c-3.859,0-7,3.141-7,7s3.141,7,7,7s7-3.141,7-7S32.359,54.5,28.5,54.5z M50.5,54.5c-3.859,0-7,3.141-7,7s3.141,7,7,7s7-3.141,7-7  S54.359,54.5,50.5,54.5z M72.5,54.5c-3.859,0-7,3.141-7,7s3.141,7,7,7s7-3.141,7-7S76.359,54.5,72.5,54.5z M50.5,76.5  c-3.859,0-7,3.141-7,7s3.141,7,7,7s7-3.141,7-7S54.359,76.5,50.5,76.5z"></path></svg>