<svg xmlns="http://www.w3.org/2000/svg" data-name="Layer 1" viewBox="0 0 100 100" x="0px" y="0px"><title>02_contact collection</title><path d="M64,21.5H36a2,2,0,0,0-2,2v53a2,2,0,0,0,2,2H64a2,2,0,0,0,2-2v-53A2,2,0,0,0,64,21.5Zm1,55a1,1,0,0,1-1,1H36a1,1,0,0,1-1-1V68H65v8.5ZM65,67H35V33H65V67Zm0-35H35V23.5a1,1,0,0,1,1-1H64a1,1,0,0,1,1,1V32Z"></path><path d="M55,27H45a0.5,0.5,0,0,0,0,1H55A0.5,0.5,0,0,0,55,27Z"></path><path d="M48.5,75h3a1,1,0,0,0,1-1V71a1,1,0,0,0-1-1h-3a1,1,0,0,0-1,1v3A1,1,0,0,0,48.5,75Zm0-4h3v3h-3V71Z"></path></svg>